<svg xmlns="http://www.w3.org/2000/svg" xmlns:xlink="http://www.w3.org/1999/xlink" viewBox="0 0 255 255"><defs><style>.cls-1{fill:#b7b7b7;}.cls-2{fill:#b8b8b8;}.cls-3{fill:#b9b9b9;}.cls-4{fill:#bababa;}.cls-5{fill:#bbb;}.cls-6{fill:#bcbcbc;}.cls-7{fill:#bdbdbd;}.cls-8{fill:#bebebe;}.cls-9{fill:#bfbfbf;}.cls-10{fill:silver;}.cls-11{fill:#c1c1c1;}.cls-12{fill:#c2c2c2;}.cls-13{fill:#c3c3c3;}.cls-14{fill:#c4c4c4;}.cls-15{fill:#c5c5c5;}.cls-16{fill:#c6c6c6;}.cls-17{fill:#c7c7c7;}.cls-18{fill:#c8c8c8;}.cls-19{fill:#c9c9c9;}.cls-20{fill:#cacaca;}.cls-21{fill:#cbcbcb;}.cls-22{fill:#ccc;}.cls-23{fill:#cdcdcd;}.cls-24{fill:#cecece;}.cls-25{fill:#cfcfcf;}.cls-26{fill:#d0d0d0;}.cls-27{fill:#d1d1d1;}.cls-28{fill:#d2d2d2;}.cls-29{fill:#d3d3d3;}.cls-30{fill:#d4d4d4;}.cls-31{fill:#d5d5d5;}.cls-32{fill:#d6d6d6;}.cls-33{fill:#d7d7d7;}.cls-34{fill:#d8d8d8;}.cls-35{fill:#d9d9d9;}.cls-36{fill:#dadada;}.cls-37{fill:#dbdbdb;}.cls-38{fill:#dcdcdc;}.cls-39{fill:#ddd;}.cls-40{fill:#dedede;}.cls-41{fill:#dfdfdf;}.cls-42{fill:#e0e0e0;}.cls-43{fill:#e1e1e1;}.cls-44{fill:#e2e2e2;}.cls-45{fill:#e3e3e3;}.cls-46{fill:#e4e4e4;}.cls-47{fill:#e5e5e5;}.cls-48{fill:#e6e6e6;}.cls-49{fill:#e7e7e7;}.cls-50{fill:#e8e8e8;}.cls-51{fill:#e9e9e9;}.cls-52{fill:#eaeaea;}.cls-53{fill:#ebebeb;}.cls-54{fill:#ececec;}.cls-55{fill:#ededed;}.cls-56{fill:#eee;}.cls-57{fill:#efefef;}.cls-58{fill:#f0f0f0;}.cls-59{fill:#f1f1f1;}.cls-60{fill:#f2f2f2;}.cls-61{fill:#f3f3f3;}.cls-62{fill:#f4f4f4;}.cls-63{fill:#f5f5f5;}.cls-64{fill:#f6f6f6;}.cls-65{fill:#f7f7f7;}.cls-66{fill:#f8f8f8;}.cls-67{fill:#f9f9f9;}.cls-68{fill:#fafafa;}.cls-69{fill:#fbfbfb;}.cls-70{fill:#fcfcfc;}.cls-71{fill:#fdfdfd;}.cls-72{fill:#fefefe;}.cls-73{fill:#fff;}.cls-74{fill:url(#linear-gradient);}.cls-75,.cls-77{fill:none;stroke-miterlimit:10;}.cls-75{stroke:#b3d600;stroke-width:0.25px;}.cls-76{opacity:0.66;}.cls-77{stroke:#fff;stroke-width:0.5px;}</style><linearGradient id="linear-gradient" x1="41.04" y1="213.93" x2="211.86" y2="43.11" gradientUnits="userSpaceOnUse"><stop offset="0" stop-color="#1000ff"/><stop offset="1" stop-color="aqua"/></linearGradient></defs><g id="Layer_12" data-name="Layer 12"><path class="cls-1" d="M255,127.47A127.53,127.53,0,0,1,37.32,217.65,127.53,127.53,0,1,1,217.67,37.3,126.67,126.67,0,0,1,255,127.47Z"/><path class="cls-2" d="M255,127.47A127.46,127.46,0,0,1,37.37,217.6,127.46,127.46,0,1,1,217.63,37.34,126.62,126.62,0,0,1,255,127.47Z"/><path class="cls-3" d="M254.91,127.47a127.41,127.41,0,0,1-217.5,90.09A127.41,127.41,0,1,1,217.59,37.38,126.61,126.61,0,0,1,254.91,127.47Z"/><path class="cls-4" d="M254.84,127.47A127.35,127.35,0,0,1,37.45,217.52,127.34,127.34,0,1,1,217.54,37.43,126.47,126.47,0,0,1,254.84,127.47Z"/><path class="cls-5" d="M254.78,127.47a127.28,127.28,0,0,1-217.28,90,127.28,127.28,0,1,1,180-180A126.46,126.46,0,0,1,254.78,127.47Z"/><path class="cls-6" d="M254.72,127.47a127.22,127.22,0,0,1-217.18,90A127.22,127.22,0,1,1,217.45,37.52,126.32,126.32,0,0,1,254.72,127.47Z"/><path class="cls-7" d="M254.66,127.47A127.16,127.16,0,0,1,37.58,217.38,127.16,127.16,0,1,1,217.41,37.56,126.31,126.31,0,0,1,254.66,127.47Z"/><path class="cls-8" d="M254.6,127.47a127.1,127.1,0,0,1-217,89.87A127.1,127.1,0,1,1,217.37,37.6,126.27,126.27,0,0,1,254.6,127.47Z"/><path class="cls-9" d="M254.53,127.47A127,127,0,0,1,37.67,217.3,127,127,0,1,1,217.32,37.65,126.16,126.16,0,0,1,254.53,127.47Z"/><path class="cls-10" d="M254.47,127.47A127,127,0,0,1,37.72,217.25,127,127,0,1,1,217.28,37.69,126.15,126.15,0,0,1,254.47,127.47Z"/><path class="cls-11" d="M254.41,127.47A126.91,126.91,0,0,1,37.76,217.21,126.91,126.91,0,1,1,217.23,37.73,126.06,126.06,0,0,1,254.41,127.47Z"/><path class="cls-12" d="M254.35,127.47A126.85,126.85,0,0,1,37.8,217.17,126.85,126.85,0,1,1,217.19,37.78,126,126,0,0,1,254.35,127.47Z"/><path class="cls-13" d="M254.29,127.47A126.78,126.78,0,0,1,37.85,217.12a126.78,126.78,0,1,1,179.3-179.3A126,126,0,0,1,254.29,127.47Z"/><path class="cls-14" d="M254.22,127.47A126.73,126.73,0,0,1,37.89,217.08,126.72,126.72,0,1,1,217.1,37.87,125.85,125.85,0,0,1,254.22,127.47Z"/><path class="cls-15" d="M254.16,127.47A126.66,126.66,0,0,1,37.94,217,126.66,126.66,0,1,1,217.06,37.91,125.8,125.8,0,0,1,254.16,127.47Z"/><path class="cls-16" d="M254.1,127.47A126.6,126.6,0,0,1,38,217,126.6,126.6,0,0,1,217,38,125.79,125.79,0,0,1,254.1,127.47Z"/><path class="cls-17" d="M254,127.47A126.54,126.54,0,0,1,38,217,126.54,126.54,0,1,1,217,38,125.7,125.7,0,0,1,254,127.47Z"/><path class="cls-18" d="M254,127.47A126.48,126.48,0,0,1,38.07,216.9,126.47,126.47,0,1,1,216.93,38,125.65,125.65,0,0,1,254,127.47Z"/><path class="cls-19" d="M253.91,127.47a126.42,126.42,0,0,1-215.8,89.39A126.41,126.41,0,1,1,216.88,38.09,125.56,125.56,0,0,1,253.91,127.47Z"/><path class="cls-20" d="M253.85,127.47A126.35,126.35,0,0,1,38.16,216.81,126.35,126.35,0,1,1,216.84,38.13,125.49,125.49,0,0,1,253.85,127.47Z"/><path class="cls-21" d="M253.79,127.47A126.29,126.29,0,0,1,38.2,216.77,126.29,126.29,0,1,1,216.8,38.17,125.48,125.48,0,0,1,253.79,127.47Z"/><path class="cls-22" d="M253.73,127.47A126.23,126.23,0,0,1,38.24,216.73,126.23,126.23,0,1,1,216.75,38.22,125.37,125.37,0,0,1,253.73,127.47Z"/><path class="cls-23" d="M253.67,127.47A126.17,126.17,0,0,1,38.29,216.68,126.16,126.16,0,1,1,216.71,38.26,125.34,125.34,0,0,1,253.67,127.47Z"/><path class="cls-24" d="M253.6,127.47A126.11,126.11,0,0,1,38.33,216.64,126.1,126.1,0,1,1,216.66,38.31,125.21,125.21,0,0,1,253.6,127.47Z"/><path class="cls-25" d="M253.54,127.47A126,126,0,0,1,38.37,216.59,126,126,0,1,1,216.62,38.35,125.19,125.19,0,0,1,253.54,127.47Z"/><path class="cls-26" d="M253.48,127.47A126,126,0,0,1,38.42,216.55,126,126,0,1,1,216.58,38.39,125.18,125.18,0,0,1,253.48,127.47Z"/><path class="cls-27" d="M253.42,127.47a125.92,125.92,0,0,1-215,89A125.91,125.91,0,1,1,216.53,38.44,125.06,125.06,0,0,1,253.42,127.47Z"/><path class="cls-28" d="M253.35,127.47a125.85,125.85,0,0,1-214.84,89,125.85,125.85,0,1,1,178-178A125,125,0,0,1,253.35,127.47Z"/><path class="cls-29" d="M253.29,127.47A125.79,125.79,0,0,1,38.55,216.42,125.79,125.79,0,0,1,216.44,38.52,124.93,124.93,0,0,1,253.29,127.47Z"/><path class="cls-30" d="M253.23,127.47A125.74,125.74,0,0,1,38.59,216.38,125.73,125.73,0,1,1,216.4,38.57,124.88,124.88,0,0,1,253.23,127.47Z"/><path class="cls-31" d="M253.17,127.47A125.67,125.67,0,0,1,38.64,216.33,125.67,125.67,0,1,1,216.36,38.61,124.85,124.85,0,0,1,253.17,127.47Z"/><path class="cls-32" d="M253.11,127.47A125.61,125.61,0,0,1,38.68,216.29,125.6,125.6,0,1,1,216.31,38.66,124.75,124.75,0,0,1,253.11,127.47Z"/><path class="cls-33" d="M253,127.47A125.54,125.54,0,0,1,38.73,216.24,125.54,125.54,0,1,1,216.27,38.7,124.73,124.73,0,0,1,253,127.47Z"/><path class="cls-34" d="M253,127.47A125.48,125.48,0,0,1,38.77,216.2,125.48,125.48,0,0,1,216.23,38.74,124.67,124.67,0,0,1,253,127.47Z"/><path class="cls-35" d="M252.92,127.47A125.43,125.43,0,0,1,38.81,216.16,125.42,125.42,0,1,1,216.18,38.79,124.59,124.59,0,0,1,252.92,127.47Z"/><path class="cls-36" d="M252.86,127.47a125.36,125.36,0,0,1-214,88.64A125.36,125.36,0,1,1,216.14,38.83,124.54,124.54,0,0,1,252.86,127.47Z"/><path class="cls-37" d="M252.8,127.47a125.3,125.3,0,0,1-213.9,88.6A125.29,125.29,0,1,1,216.09,38.88,124.45,124.45,0,0,1,252.8,127.47Z"/><path class="cls-37" d="M252.73,127.47A125.23,125.23,0,0,1,39,216a125.23,125.23,0,1,1,177.1-177.1A124.37,124.37,0,0,1,252.73,127.47Z"/><path class="cls-38" d="M252.67,127.47A125.17,125.17,0,0,1,39,216,125.17,125.17,0,0,1,216,39,124.36,124.36,0,0,1,252.67,127.47Z"/><path class="cls-39" d="M252.61,127.47A125.12,125.12,0,0,1,39,215.94,125.11,125.11,0,1,1,216,39,124.26,124.26,0,0,1,252.61,127.47Z"/><path class="cls-40" d="M252.55,127.47A125,125,0,0,1,39.08,215.89,125,125,0,1,1,215.92,39.05,124.23,124.23,0,0,1,252.55,127.47Z"/><path class="cls-41" d="M252.49,127.47A125,125,0,0,1,39.12,215.85,125,125,0,1,1,215.87,39.1,124.14,124.14,0,0,1,252.49,127.47Z"/><path class="cls-42" d="M252.42,127.47A124.92,124.92,0,0,1,39.16,215.8,124.92,124.92,0,0,1,215.83,39.14,124.08,124.08,0,0,1,252.42,127.47Z"/><path class="cls-43" d="M252.36,127.47A124.86,124.86,0,0,1,39.21,215.76,124.86,124.86,0,0,1,215.79,39.18,124.05,124.05,0,0,1,252.36,127.47Z"/><path class="cls-44" d="M252.3,127.47a124.8,124.8,0,0,1-213,88.25A124.8,124.8,0,1,1,215.74,39.23,124,124,0,0,1,252.3,127.47Z"/><path class="cls-45" d="M252.24,127.47A124.73,124.73,0,0,1,39.3,215.67,124.73,124.73,0,1,1,215.7,39.27,123.93,123.93,0,0,1,252.24,127.47Z"/><path class="cls-46" d="M252.18,127.47A124.68,124.68,0,0,1,39.34,215.63,124.67,124.67,0,1,1,215.65,39.31,123.83,123.83,0,0,1,252.18,127.47Z"/><path class="cls-47" d="M252.11,127.47A124.62,124.62,0,0,1,39.38,215.59,124.61,124.61,0,1,1,215.61,39.36,123.77,123.77,0,0,1,252.11,127.47Z"/><path class="cls-48" d="M252.05,127.47A124.55,124.55,0,0,1,39.43,215.54,124.55,124.55,0,1,1,215.57,39.4,123.74,123.74,0,0,1,252.05,127.47Z"/><path class="cls-49" d="M252,127.47a124.49,124.49,0,0,1-212.52,88,124.49,124.49,0,1,1,176.05-176A123.63,123.63,0,0,1,252,127.47Z"/><path class="cls-50" d="M251.93,127.47a124.42,124.42,0,0,1-212.41,88,124.42,124.42,0,1,1,176-176A123.62,123.62,0,0,1,251.93,127.47Z"/><path class="cls-51" d="M251.87,127.47A124.37,124.37,0,0,1,39.56,215.41,124.37,124.37,0,1,1,215.44,39.53,123.55,123.55,0,0,1,251.87,127.47Z"/><path class="cls-52" d="M251.8,127.47a124.31,124.31,0,0,1-212.2,87.9A124.3,124.3,0,1,1,215.39,39.58,123.46,123.46,0,0,1,251.8,127.47Z"/><path class="cls-53" d="M251.74,127.47A124.24,124.24,0,0,1,39.65,215.32a124.24,124.24,0,1,1,175.7-175.7A123.43,123.43,0,0,1,251.74,127.47Z"/><path class="cls-54" d="M251.68,127.47a124.18,124.18,0,0,1-212,87.81A124.18,124.18,0,1,1,215.3,39.67,123.32,123.32,0,0,1,251.68,127.47Z"/><path class="cls-55" d="M251.62,127.47A124.11,124.11,0,0,1,39.74,215.23,124.11,124.11,0,1,1,215.26,39.71,123.27,123.27,0,0,1,251.62,127.47Z"/><path class="cls-56" d="M251.56,127.47A124.06,124.06,0,0,1,39.78,215.19,124.05,124.05,0,1,1,215.22,39.75,123.26,123.26,0,0,1,251.56,127.47Z"/><path class="cls-57" d="M251.49,127.47A124,124,0,0,1,39.82,215.15,124,124,0,1,1,215.17,39.8,123.15,123.15,0,0,1,251.49,127.47Z"/><path class="cls-58" d="M251.43,127.47A123.93,123.93,0,0,1,39.87,215.1,123.93,123.93,0,1,1,215.13,39.84,123.11,123.11,0,0,1,251.43,127.47Z"/><path class="cls-59" d="M251.37,127.47A123.87,123.87,0,0,1,39.91,215.06,123.87,123.87,0,1,1,215.08,39.88,123.07,123.07,0,0,1,251.37,127.47Z"/><path class="cls-60" d="M251.31,127.47A123.81,123.81,0,0,1,40,215,123.8,123.8,0,1,1,215,39.93,123,123,0,0,1,251.31,127.47Z"/><path class="cls-61" d="M251.24,127.47A123.74,123.74,0,0,1,40,215,123.74,123.74,0,1,1,215,40,122.94,122.94,0,0,1,251.24,127.47Z"/><path class="cls-62" d="M251.18,127.47A123.69,123.69,0,0,1,40,214.93,123.68,123.68,0,1,1,215,40,122.83,122.83,0,0,1,251.18,127.47Z"/><path class="cls-63" d="M251.12,127.47a123.62,123.62,0,0,1-211,87.41A123.62,123.62,0,1,1,214.91,40.06,122.8,122.8,0,0,1,251.12,127.47Z"/><path class="cls-64" d="M251.06,127.47A123.56,123.56,0,0,1,40.13,214.84,123.56,123.56,0,1,1,214.86,40.1,122.72,122.72,0,0,1,251.06,127.47Z"/><path class="cls-65" d="M251,127.47A123.5,123.5,0,0,1,40.17,214.8,123.5,123.5,0,1,1,214.82,40.15,122.67,122.67,0,0,1,251,127.47Z"/><path class="cls-66" d="M250.93,127.47A123.43,123.43,0,0,1,40.22,214.75,123.43,123.43,0,1,1,214.78,40.19,122.63,122.63,0,0,1,250.93,127.47Z"/><path class="cls-67" d="M250.87,127.47A123.38,123.38,0,0,1,40.26,214.71,123.37,123.37,0,1,1,214.73,40.24,122.52,122.52,0,0,1,250.87,127.47Z"/><path class="cls-68" d="M250.81,127.47a123.31,123.31,0,0,1-210.5,87.19A123.31,123.31,0,1,1,214.69,40.28,122.51,122.51,0,0,1,250.81,127.47Z"/><path class="cls-69" d="M250.75,127.47a123.25,123.25,0,0,1-210.4,87.15,123.25,123.25,0,1,1,174.3-174.3A122.44,122.44,0,0,1,250.75,127.47Z"/><path class="cls-70" d="M250.69,127.47a123.19,123.19,0,0,1-210.3,87.11A123.19,123.19,0,1,1,214.6,40.37,122.36,122.36,0,0,1,250.69,127.47Z"/><path class="cls-71" d="M250.62,127.47A123.12,123.12,0,0,1,40.44,214.53,123.12,123.12,0,0,1,214.56,40.41,122.31,122.31,0,0,1,250.62,127.47Z"/><path class="cls-72" d="M250.56,127.47a123.06,123.06,0,0,1-210.08,87,123.06,123.06,0,1,1,174-174A122.21,122.21,0,0,1,250.56,127.47Z"/><path class="cls-73" d="M250.5,127.47a123,123,0,0,1-210,87A123,123,0,1,1,214.47,40.5,122.2,122.2,0,0,1,250.5,127.47Z"/><path class="cls-74" d="M250.5,127.47a123,123,0,0,1-210,87A123,123,0,1,1,214.47,40.5,122.2,122.2,0,0,1,250.5,127.47Z"/><line class="cls-75" x1="98.36" y1="149.88" x2="98.36" y2="149.13"/><path class="cls-73" d="M98.36,149.13v56.52H71.2V105.12A56.28,56.28,0,0,1,127.4,49.3h.09v26a29.42,29.42,0,0,0-28.92,25.83,56,56,0,0,1,28.92-8v27a29.43,29.43,0,0,0-29.13,29.05Z"/><path class="cls-73" d="M183.8,149.41v.48a56.32,56.32,0,0,1-50.54,55.53h0c-1.93.14-3.88.22-5.85.22-1.68,0-3.34-.06-5-.17h0a55.6,55.6,0,0,1-20-5.67V164.36a29.43,29.43,0,0,0,25.28,14.57h1a29.43,29.43,0,0,0,28.3-25.31,28.57,28.57,0,0,0,.29-3.72v-.39a29.43,29.43,0,0,0-25.8-29.21V93.24A56,56,0,0,1,157,101.47a56.58,56.58,0,0,1,22.29,25.91v.26a.58.58,0,0,1,0-.14A56.11,56.11,0,0,1,183.8,149.41Z"/><circle class="cls-73" cx="172.03" cy="63.08" r="9.42"/><circle class="cls-73" cx="172.03" cy="63.08" r="9.42"/><g class="cls-76"><circle class="cls-77" cx="172.03" cy="63.08" r="11.43"/></g></g></svg>