<svg id="Layer_1" data-name="Layer 1" xmlns="http://www.w3.org/2000/svg" xmlns:xlink="http://www.w3.org/1999/xlink" viewBox="0 0 71.27 96.73"><defs><style>.cls-1,.cls-2{fill:#fff;}.cls-2{font-size:1.37px;font-family:MyriadPro-Regular, Myriad Pro;}.cls-3{letter-spacing:-0.01em;}.cls-4{fill:url(#linear-gradient);}.cls-5{opacity:0.47;}.cls-6{fill:#01031e;}</style><linearGradient id="linear-gradient" x1="-2081.94" y1="1457.68" x2="-2074.06" y2="1449.8" gradientTransform="translate(1491.6 2105.42) rotate(90)" gradientUnits="userSpaceOnUse"><stop offset="0" stop-color="#1000fd"/><stop offset="1" stop-color="#0efdfd"/></linearGradient></defs><path class="cls-1" d="M29.13,96.73a33.19,33.19,0,0,1-15.19-4.61l0,0a26.52,26.52,0,0,1-2.29-1.58C3.37,83.33-1.09,67.41,5.8,55A29,29,0,0,0,3.13,79.48c-4.89-11.74-1.44-26.05,8.56-34.71a13,13,0,0,0,1,1.37L8.75,49.76a.64.64,0,0,0-.19.45.59.59,0,0,0,.18.45l.38.37a.63.63,0,0,0,.43.17A.62.62,0,0,0,10,51l3.93-3.62a6.23,6.23,0,0,0,.55.49C4,57.37.67,68.11,6,81.54c-4.73-13.06-.16-25.44,9.25-33,.22.17.45.33.68.48A28,28,0,0,0,6,63a28,28,0,0,0-.29,17.54,22,22,0,0,0,9.52,11.91A32.43,32.43,0,0,0,29.13,96.73Z"/><path class="cls-1" d="M71.21,0a.67.67,0,0,0-.14.09L68.43,1.71l-2.77,1.7c-1.77,1.1-3.51,2.2-5.24,3.33a15.16,15.16,0,0,0-3.2-1.11,17,17,0,0,0-4.72-.36,22.1,22.1,0,0,0-4.64.8,29.61,29.61,0,0,0-4.38,1.65,29.91,29.91,0,0,1,4.44-1.45,21.06,21.06,0,0,1,4.6-.63,16.31,16.31,0,0,1,4.57.5A15,15,0,0,1,60,7.24a1.28,1.28,0,0,0-.07.34c-3.71-1.77-7.86-2-12.68-.5A32.15,32.15,0,0,0,43.83,8.4a7.17,7.17,0,0,1,1-1.12A6.77,6.77,0,0,0,43.7,8.46c-.43.2-.86.4-1.3.63a57.11,57.11,0,0,0-15,11.62c.07-.29.14-.58.23-.86a3,3,0,0,1,.23-.27l.71-.76c.48-.49,1-1,1.46-1.47A56.06,56.06,0,0,1,36.32,12c1.13-.81,2.29-1.58,3.48-2.29a39.36,39.36,0,0,1,3.68-2,41,41,0,0,0-7.34,4,55.89,55.89,0,0,0-6.58,5.2c-.52.47-1,.95-1.52,1.44l-.74.76-.18.19a3.67,3.67,0,0,0-4.52,1.06l-7.79,9a18.06,18.06,0,0,0-2.91.67,20.84,20.84,0,0,1,3-.49,25.5,25.5,0,0,1,3-.1v1.39h-.32c-.31,0-.76,0-1.3,0s-1.16.07-1.83.15c-.33,0-.67.09-1,.16s-.69.15-1,.23-.69.18-1,.3-.66.23-1,.36-.6.28-.87.42-.52.3-.75.43-.42.3-.59.42a3.55,3.55,0,0,0-.44.36L7.48,34l.38-.31a3.79,3.79,0,0,1,.44-.34c.18-.11.37-.27.61-.39a7.43,7.43,0,0,1,.75-.41c.28-.12.57-.26.88-.37a9.2,9.2,0,0,1,1-.33c.33-.1.67-.17,1-.25s.69-.14,1-.19l1-.12a17,17,0,0,1,1.81-.08c.53,0,1,0,1.27,0l.32,0,.18-.2-7,7.93a1.21,1.21,0,0,0,.09.2l0,.07.08.13a.22.22,0,0,0,0,.08l.08.12.07.08a.52.52,0,0,0,.1.11l.07.08.11.11,0,0-3,2.74L7.33,44.14,7,44.49a2.33,2.33,0,0,1-.35.27,2.76,2.76,0,0,1-.81.33A4.79,4.79,0,0,1,3.92,45a6.19,6.19,0,0,1-1.79-.65A2.7,2.7,0,0,1,.9,43.12a2.68,2.68,0,0,1-.06-1.77,3.55,3.55,0,0,1,.39-.84c.16-.25.39-.53.59-.8l1.24-1.63,2.48-3.26L6.16,34c.21-.27.4-.55.62-.8a8.28,8.28,0,0,1,1.48-1.35,13.41,13.41,0,0,1,3.64-1.79,12.45,12.45,0,0,0-3.79,1.58A8.39,8.39,0,0,0,6.51,33c-.49.52-.88,1-1.32,1.58L2.6,37.72,1.31,39.31c-.21.27-.43.51-.65.83a4.22,4.22,0,0,0-.49,1,3.38,3.38,0,0,0,0,2.26,3.47,3.47,0,0,0,1.52,1.66,5.49,5.49,0,0,0,1,.45,6.19,6.19,0,0,0,1,.3A5.37,5.37,0,0,0,6,45.87,3.26,3.26,0,0,0,7,45.44a4.1,4.1,0,0,0,.47-.35l.37-.35,1.5-1.4,2.74-2.55c-.19,1.52.64,3.69,2.31,5.59s3.68,3,5.22,3l-1.09.76L15,52.62l0,0a5.61,5.61,0,0,0-1,1A4,4,0,0,0,13.34,55a4.18,4.18,0,0,0-.13,1.46,6.65,6.65,0,0,0,.28,1.41c.08.22.17.43.25.65l.3.64a4.61,4.61,0,0,0,.87,1.18,2.43,2.43,0,0,0,1.42.64,4.25,4.25,0,0,0,1.47-.11,5.08,5.08,0,0,0,.69-.23l.62-.28,1.22-.56,2.43-1.11c1.63-.73,3.24-1.5,4.86-2.25h0a8.86,8.86,0,0,0,2.16-2.16,15,15,0,0,0,1.49-2.61,22.51,22.51,0,0,0,1.6-5.38l.06-.32a3.51,3.51,0,0,0,.84-.47L35,44.8c2.17-1.22,5.39-3,5.9-3.27a4,4,0,0,0,2-2.49l.4-.24,1-.66a71.1,71.1,0,0,0,7.41-5.77A44.62,44.62,0,0,0,58,25.44,24.7,24.7,0,0,0,62.19,17a16.73,16.73,0,0,0,.49-4.73,15.64,15.64,0,0,0-.44-3.12c1.48-1.47,3-2.95,4.42-4.45L69,2.31l1.14-1.18.58-.58a4.39,4.39,0,0,1,.6-.55ZM61,9.26c-.49,8-7.83,16.13-15,22.13a4.69,4.69,0,0,0,.61-1.33c6.53-5.65,13.24-13.19,14.19-20.89Zm-17.7.29a33.46,33.46,0,0,1,4.9-2A17.31,17.31,0,0,1,60,7.59a1.13,1.13,0,0,0,0,.26,1.76,1.76,0,0,0,.32.84,2.08,2.08,0,0,0,.45.44C59.23,14.37,55.36,19.54,51,24.05a13.12,13.12,0,0,1-4-2.59,14.68,14.68,0,0,1-3.2-4.25A10.59,10.59,0,0,1,42.57,12a7.08,7.08,0,0,1,.58-2.43ZM43,9.7A7.15,7.15,0,0,0,42.33,12a10.81,10.81,0,0,0,1,5.4A15.41,15.41,0,0,0,46.43,22a14,14,0,0,0,3.82,2.78c-1.16,1.15-2.34,2.26-3.53,3.31a11.36,11.36,0,0,0-3.15-5.95c-3.23-3.55-7.2-5.29-10.14-2.62L31.7,21.17c-2.74,2.71-2.45,7.61.7,11.09.14.15.27.29.41.42l.11.11.39.35,0,0,.44.35.12.09.39.28.07,0c.15.1.3.2.46.29l.11.07.41.22.08,0,.48.22.12,0,.41.15.1,0,.48.15.11,0,.42.1h-.06l-1.59,1.09A17.64,17.64,0,0,1,32,33.58a16.45,16.45,0,0,1-3.21-4.2,14,14,0,0,1-1.61-5,11.44,11.44,0,0,1,0-2.11A58.63,58.63,0,0,1,43,9.7Zm.27,23.82a5.55,5.55,0,0,1-2.47,1.3,8.44,8.44,0,0,1-8-2.89,9.07,9.07,0,0,1-2.45-5.66,6.09,6.09,0,0,1,1.89-4.91,5.55,5.55,0,0,1,2.47-1.3,8.47,8.47,0,0,1,8,2.89C45.71,26.3,46,31,43.23,33.52Zm-22.12-5a.37.37,0,0,1,.68.3.37.37,0,0,1-.48.17A.36.36,0,0,1,21.11,28.49Zm-.4,1.44a.83.83,0,0,1,1.52.66.8.8,0,0,1-1.07.39A.81.81,0,0,1,20.71,29.93Zm-5.09,15.4A6.54,6.54,0,0,1,13.68,41L13.43,41l.39.11h0a2.92,2.92,0,0,0,.39.07L18,37.68c0,.12.06.24.1.36a11.62,11.62,0,0,0,2,3.81,14,14,0,0,0,3.1,2.84l.3.19L20.22,47l-.37-.14a11.85,11.85,0,0,1-1.24-.6,10.93,10.93,0,0,1-1.76-1.24,8.56,8.56,0,0,1-1.45-1.61,8.86,8.86,0,0,1-1-1.93,8.44,8.44,0,0,0,.84,2,9,9,0,0,0,1.34,1.79,10.85,10.85,0,0,0,1.34,1.19l.37.27a10.69,10.69,0,0,0,1.54.9c0,.08,0,.15,0,.23C19.06,48,17.31,47.26,15.62,45.33Zm11.09,10-9.46,4.44A3.75,3.75,0,0,1,16,60a1.56,1.56,0,0,1-.52-.32,5.76,5.76,0,0,1-1.19-2.15A5.11,5.11,0,0,1,14,56.36a4,4,0,0,1,0-.6,3.84,3.84,0,0,1,.11-.59,3,3,0,0,1,.52-1.05,4.89,4.89,0,0,1,.88-.88L19,50.74l1.42-1a4.87,4.87,0,0,0,1,1.16l9.7-5.35C30.91,48.09,29.39,53.88,26.71,55.34Zm5.54-13a.65.65,0,0,1-.66.64.64.64,0,0,1-.65-.65.63.63,0,0,1,.66-.63A.65.65,0,0,1,32.25,42.34Zm1,.08a.32.32,0,0,1-.33.31.32.32,0,0,1-.33-.32.33.33,0,0,1,.33-.32A.34.34,0,0,1,33.23,42.42ZM61.9,12.25a15.82,15.82,0,0,1-.58,4.49,23.65,23.65,0,0,1-4.15,8.07,45.81,45.81,0,0,1-6.31,6.68,75.2,75.2,0,0,1-7.33,5.61l-1,.63-1,.6-2,1.18L36,41.6l-.31.18a10.71,10.71,0,0,0-4.23-1,5,5,0,0,0-2.92.81l-4.3,2.8-.34-.17a13,13,0,0,1-3.49-2.65A11.12,11.12,0,0,1,18.12,38c0-.1-.08-.22-.12-.33l3.84-3.59.09-.09a3.58,3.58,0,0,0,.79-1.06,3.63,3.63,0,0,0,.29-.8,11.69,11.69,0,0,0,.24-1.81,8.88,8.88,0,0,0-.38-3.21,1.14,1.14,0,0,0-.31-.49,1,1,0,0,0-.51-.26l.23-.27,2.15-2.52,2.7-3.19.41-.48c-.1.29-.18.59-.26.89L26.16,22l-3.51,4.27a1.43,1.43,0,0,1,.52.7l3.71-4.47.14-.16a11.25,11.25,0,0,0,0,2,14,14,0,0,0,1.49,5.17,18.62,18.62,0,0,0,3.12,4.42,17.71,17.71,0,0,0,3.57,2.93l-5.7,3.91.55-.17a5.14,5.14,0,0,1,1.46-.14c.19,0,.38,0,.58,0l7.58-5h-.32l.42,0h.12l.47-.06h.06c.14,0,.28,0,.41-.09h.07l.07,0,.19-.05-.1,0c-.66.48-1.29.93-1.91,1.35l-6.34,4a10,10,0,0,1,2.91.81l6.73-4a63.6,63.6,0,0,0,12-10.16.5.5,0,0,0,.15-.17c4.57-5.16,7.87-11.34,6.64-17.72l.34.05A14.19,14.19,0,0,1,61.9,12.25ZM70.61.48,70.2.83,60.78,8.28a1,1,0,0,1-.11-.95C62.48,6.14,64.27,4.92,66,3.7l2.65-1.86L70.78.35Z"/><path class="cls-1" d="M34.25,30.66a7.16,7.16,0,0,1-1.94-5.91,4.15,4.15,0,0,1,1.27-2.37l.32-.26A3.94,3.94,0,0,0,32,24.93,7.17,7.17,0,0,0,34,30.84c2.3,2.55,5.71,3.27,7.82,1.76C39.67,33.86,36.46,33.1,34.25,30.66Z"/><path class="cls-1" d="M34.17,22l-.08.06a4.15,4.15,0,0,0-1.27,2.37,7.16,7.16,0,0,0,1.94,5.91c2.13,2.35,5.2,3.15,7.32,2.06l.06,0A4.22,4.22,0,0,0,43.42,30a7.17,7.17,0,0,0-2-5.91C39.35,21.69,36.29,20.89,34.17,22Zm4.08,1.8c0,.32-.58.53-1.24.47s-1.18-.35-1.15-.67.58-.52,1.24-.47S38.28,23.46,38.25,23.77Z"/><path class="cls-1" d="M33.23,31.31a.25.25,0,0,0-.3.21.26.26,0,0,0,.21.31.27.27,0,0,0,.31-.21A.28.28,0,0,0,33.23,31.31Z"/><path class="cls-1" d="M43.85,31.69a.26.26,0,0,0-.31.21.25.25,0,0,0,.21.3.26.26,0,1,0,.1-.51Z"/><path class="cls-1" d="M42.16,33.39a.26.26,0,1,0,.21.3A.25.25,0,0,0,42.16,33.39Z"/><path class="cls-1" d="M40,34.18a.25.25,0,0,0-.3.21.26.26,0,1,0,.51.1A.26.26,0,0,0,40,34.18Z"/><path class="cls-1" d="M37.66,34a.28.28,0,0,0-.31.21.26.26,0,1,0,.52.1A.27.27,0,0,0,37.66,34Z"/><path class="cls-1" d="M35.32,33a.26.26,0,0,0-.31.21.26.26,0,1,0,.31-.21Z"/><path class="cls-1" d="M31.8,29.09a.26.26,0,0,0-.31.21.25.25,0,0,0,.21.3.26.26,0,1,0,.1-.51Z"/><path class="cls-1" d="M31.19,26.78a.25.25,0,0,0-.21-.3.26.26,0,0,0-.31.21.28.28,0,0,0,.21.31A.27.27,0,0,0,31.19,26.78Z"/><path class="cls-1" d="M31.28,24.29a.26.26,0,1,0-.52-.09.25.25,0,0,0,.21.3A.26.26,0,0,0,31.28,24.29Z"/><path class="cls-1" d="M32.11,22.39a.26.26,0,0,0,.31-.21.25.25,0,0,0-.21-.3.26.26,0,0,0-.31.21A.25.25,0,0,0,32.11,22.39Z"/><path class="cls-1" d="M34.45,21a.25.25,0,0,0,.3-.21.26.26,0,0,0-.21-.31.28.28,0,0,0-.31.22A.26.26,0,0,0,34.45,21Z"/><path class="cls-1" d="M37.3,20.9a.26.26,0,0,0,.31-.21.27.27,0,0,0-.21-.31.28.28,0,0,0-.31.22A.25.25,0,0,0,37.3,20.9Z"/><path class="cls-1" d="M40.16,22a.26.26,0,0,0,.31-.21.27.27,0,0,0-.21-.31.28.28,0,0,0-.31.21A.27.27,0,0,0,40.16,22Z"/><path class="cls-1" d="M42.46,23.82a.28.28,0,0,0,.21.31.26.26,0,0,0,.1-.52A.27.27,0,0,0,42.46,23.82Z"/><path class="cls-1" d="M44.12,26.81a.27.27,0,0,0,.31-.21.26.26,0,0,0-.52-.1A.27.27,0,0,0,44.12,26.81Z"/><path class="cls-1" d="M44.58,29.74a.26.26,0,0,0,.3-.21.26.26,0,0,0-.21-.31.25.25,0,0,0-.3.21A.26.26,0,0,0,44.58,29.74Z"/><path class="cls-1" d="M1.79,42c-.14-.29.2-.85.6-1.59L1.92,41a2.55,2.55,0,0,0-.56,1.58c0,.41,0,1.5,2.38,2.16a4.39,4.39,0,0,0,2,.11,1.75,1.75,0,0,0,.82-.43L11.29,40a2.13,2.13,0,0,1-.47-.8C7.76,41.3,3.57,43.74,1.79,42Z"/><path class="cls-1" d="M16.81,59.63a3.77,3.77,0,0,0,.69-.27l9-4.39c2.05-1.43,3.33-4.72,4.1-8.87l-5.76,3.3a20.73,20.73,0,0,1-8.59,10.32A2.36,2.36,0,0,0,16.81,59.63Z"/><path class="cls-1" d="M48.48,25.63a.53.53,0,0,0,.26-.71.52.52,0,0,0-.7-.26.42.42,0,0,0-.14.09l.06,0a.39.39,0,0,1,.33.71.39.39,0,0,1-.52-.19.29.29,0,0,1,0-.18.48.48,0,0,0,0,.31A.53.53,0,0,0,48.48,25.63Z"/><path class="cls-1" d="M43.07,19.28a.38.38,0,0,0-.13.09l.06,0a.39.39,0,0,1,.52.2.38.38,0,0,1-.2.51.38.38,0,0,1-.51-.19.39.39,0,0,1,0-.18.56.56,0,0,0,0,.31.54.54,0,0,0,.71.27.55.55,0,0,0,.26-.71A.53.53,0,0,0,43.07,19.28Z"/><path class="cls-1" d="M28.62,32.62a.39.39,0,0,1-.51-.19.39.39,0,0,1,0-.18.48.48,0,0,0,0,.31.53.53,0,1,0,.26-.71l-.13.09.06,0a.39.39,0,0,1,.52.19A.4.4,0,0,1,28.62,32.62Z"/><path class="cls-1" d="M21.73,45.25a.53.53,0,1,0-.45-1l-.13.09.06,0a.39.39,0,1,1,.32.71.38.38,0,0,1-.51-.2.33.33,0,0,1,0-.17A.56.56,0,0,0,21,45,.53.53,0,0,0,21.73,45.25Z"/><path class="cls-1" d="M17.73,40.28a.53.53,0,0,0-.45-1l-.13.09.06,0a.38.38,0,0,1,.51.19.39.39,0,1,1-.7.33.39.39,0,0,1,0-.18A.48.48,0,0,0,17,40,.53.53,0,0,0,17.73,40.28Z"/><path class="cls-1" d="M33.32,37.57a.53.53,0,0,0,.26-.7.53.53,0,0,0-.71-.26.38.38,0,0,0-.13.09l.06,0a.39.39,0,0,1,.32.71.4.4,0,0,1-.52-.19.57.57,0,0,1,0-.18.48.48,0,0,0,0,.31A.53.53,0,0,0,33.32,37.57Z"/><path class="cls-1" d="M26.26,26.54a.55.55,0,0,0,.26-.71.53.53,0,0,0-.71-.26.38.38,0,0,0-.13.09l.06,0a.39.39,0,1,1,.32.71.38.38,0,0,1-.51-.19.39.39,0,0,1,0-.18.48.48,0,0,0,0,.31A.54.54,0,0,0,26.26,26.54Z"/><path class="cls-1" d="M41.31,13.06a.53.53,0,0,0,.27-.7.54.54,0,0,0-.71-.27l-.14.09.06,0a.39.39,0,1,1,.33.71.4.4,0,0,1-.52-.19.38.38,0,0,1,0-.18.48.48,0,0,0,0,.31A.53.53,0,0,0,41.31,13.06Z"/><text class="cls-2" transform="translate(36.38 25.36) rotate(47.62)">fly<tspan class="cls-3" x="1.36" y="0">b</tspan><tspan x="2.13" y="0">y</tspan></text><ellipse class="cls-4" cx="37.87" cy="27.44" rx="5.1" ry="6.97" transform="translate(-8.6 32.7) rotate(-42.38)"/><path class="cls-1" d="M34.08,30.9c-2.6-2.85-3-6.73-.93-8.64s5.91-1.13,8.52,1.72,3,6.73.93,8.64S36.69,33.76,34.08,30.9ZM41.62,24c-2.57-2.82-6.35-3.58-8.41-1.69s-1.65,5.71.92,8.53,6.34,3.58,8.41,1.69S44.19,26.84,41.62,24Z"/><g class="cls-5"><path class="cls-6" d="M41.52,26.65a.51.51,0,0,0-.75.68.5.5,0,0,0,.71,0A.5.5,0,0,0,41.52,26.65Zm-.73.67a.49.49,0,0,1,0-.69.49.49,0,0,1,.65.72A.49.49,0,0,1,40.79,27.32Z"/><path class="cls-6" d="M41.42,27.29a.41.41,0,0,1-.58,0,.4.4,0,1,1,.58,0Z"/><path class="cls-6" d="M37.79,25.75a2.57,2.57,0,0,1,1.1.69l-.86.79a1.29,1.29,0,0,0-.77-.4,1.25,1.25,0,0,0-1,.32h0l-1.78,1.62-.79-.87L36.87,25a2.43,2.43,0,0,1,3.42.17h0l-.83.75A1.28,1.28,0,0,0,37.79,25.75Z"/><path class="cls-6" d="M38.73,29.88h0a2.43,2.43,0,0,1-3.24,0c-.07-.06-.12-.12-.18-.18a2.09,2.09,0,0,1-.14-.17h0a2.41,2.41,0,0,1-.4-.8l1.13-1A1.28,1.28,0,0,0,36.16,29l0,0h0a1.26,1.26,0,0,0,1.63.16l.12-.1h0a1.29,1.29,0,0,0,.41-1,1.35,1.35,0,0,0-.23-.69l.86-.79a2.43,2.43,0,0,1,.48,1.06,2.37,2.37,0,0,1-.17,1.46h0A2.38,2.38,0,0,1,38.73,29.88Z"/></g><path class="cls-1" d="M41.68,26.64a.52.52,0,0,0-.72,0,.51.51,0,0,0,.68.75A.52.52,0,0,0,41.68,26.64Zm-.73.67a.48.48,0,1,1,.68,0A.48.48,0,0,1,41,27.31Z"/><path class="cls-1" d="M41.58,27.28a.41.41,0,1,1,0-.57A.41.41,0,0,1,41.58,27.28Z"/><path class="cls-1" d="M38,25.75a2.39,2.39,0,0,1,1.1.69l-.86.78a1.27,1.27,0,0,0-.77-.39,1.25,1.25,0,0,0-1,.31h0l-1.78,1.62-.79-.86L37,25a2.44,2.44,0,0,1,3.42.17h0l-.83.76A1.27,1.27,0,0,0,38,25.75Z"/><path class="cls-1" d="M38.89,29.87v0a2.43,2.43,0,0,1-3.24,0l-.18-.18-.14-.16h0a2.23,2.23,0,0,1-.4-.8l1.13-1a1.28,1.28,0,0,0,.27,1.23l0,0h0a1.28,1.28,0,0,0,1.63.17l.12-.1h0a1.31,1.31,0,0,0,.41-1,1.35,1.35,0,0,0-.23-.69l.86-.78a2.45,2.45,0,0,1,.31,2.52h0A2.28,2.28,0,0,1,38.89,29.87Z"/></svg>