<svg id="Layer_1" data-name="Layer 1" xmlns="http://www.w3.org/2000/svg" viewBox="0 0 60 60"><defs><style>.cls-1{fill:#fff;}</style></defs><path class="cls-1" d="M30,58.22A28.22,28.22,0,1,1,58.22,30,28.25,28.25,0,0,1,30,58.22Zm1.68-17a.42.42,0,0,0-.28.12.41.41,0,0,0-.13.29V55.06a.4.4,0,0,0,.16.32.38.38,0,0,0,.25.09h.09c4.29-1,8.23-5.57,10.54-12.29a.44.44,0,0,0,0-.32.38.38,0,0,0-.26-.2,47.85,47.85,0,0,0-10.33-1.43Zm-3.37,0A47.16,47.16,0,0,0,18,42.65a.41.41,0,0,0-.26.2.45.45,0,0,0,0,.32C20,49.89,23.94,54.48,28.23,55.46h.09a.38.38,0,0,0,.25-.09.4.4,0,0,0,.16-.32V41.63a.41.41,0,0,0-.41-.4ZM14.8,43.64l-.14,0a28.2,28.2,0,0,0-4.38,2,.4.4,0,0,0-.19.28.42.42,0,0,0,.08.33,25.9,25.9,0,0,0,9.18,7.06.33.33,0,0,0,.17,0,.39.39,0,0,0,.32-.16.41.41,0,0,0,0-.5,27.79,27.79,0,0,1-4.65-8.8.42.42,0,0,0-.21-.24A.39.39,0,0,0,14.8,43.64Zm30.4,0a.58.58,0,0,0-.18,0,.45.45,0,0,0-.21.24,27.85,27.85,0,0,1-4.65,8.81.41.41,0,0,0,0,.5.39.39,0,0,0,.32.16.33.33,0,0,0,.17,0,25.81,25.81,0,0,0,9.18-7.06.42.42,0,0,0,.08-.33.4.4,0,0,0-.19-.28,27.24,27.24,0,0,0-4.38-2A.35.35,0,0,0,45.2,43.63Zm2.14-12.36a.42.42,0,0,0-.41.4,45.71,45.71,0,0,1-1.2,9,.41.41,0,0,0,.26.48,29.64,29.64,0,0,1,5.28,2.43.37.37,0,0,0,.21.06.39.39,0,0,0,.34-.2A25.55,25.55,0,0,0,55.6,31.71a.45.45,0,0,0-.1-.31.43.43,0,0,0-.3-.13Zm-42.54,0a.43.43,0,0,0-.3.13.45.45,0,0,0-.1.31A25.55,25.55,0,0,0,8.18,43.49a.42.42,0,0,0,.55.14A30,30,0,0,1,14,41.2a.41.41,0,0,0,.26-.48,45.71,45.71,0,0,1-1.2-9,.42.42,0,0,0-.41-.4Zm11.23,0a.41.41,0,0,0-.29.13.38.38,0,0,0-.11.3,41.54,41.54,0,0,0,1.12,8.22.38.38,0,0,0,.18.25.42.42,0,0,0,.21.06h.11a49.94,49.94,0,0,1,11.08-1.55.4.4,0,0,0,.4-.4V31.68a.42.42,0,0,0-.41-.41Zm15.65,0a.42.42,0,0,0-.41.41v6.59a.4.4,0,0,0,.4.4,50.45,50.45,0,0,1,11.08,1.54l.11,0a.42.42,0,0,0,.21-.06.41.41,0,0,0,.18-.25,41.54,41.54,0,0,0,1.12-8.22.38.38,0,0,0-.11-.3.41.41,0,0,0-.29-.13Zm19.8-15a.37.37,0,0,0-.21.06A29.64,29.64,0,0,1,46,18.8a.41.41,0,0,0-.26.48,45.71,45.71,0,0,1,1.2,9,.42.42,0,0,0,.41.4H55.2a.43.43,0,0,0,.3-.13.45.45,0,0,0,.1-.31,25.55,25.55,0,0,0-3.78-11.78A.39.39,0,0,0,51.48,16.31Zm-8.62,3.46-.11,0a50.45,50.45,0,0,1-11.08,1.54.4.4,0,0,0-.4.4v6.59a.42.42,0,0,0,.41.41H44a.41.41,0,0,0,.29-.13.38.38,0,0,0,.11-.3,41.54,41.54,0,0,0-1.12-8.22.41.41,0,0,0-.18-.25A.42.42,0,0,0,42.86,19.77Zm-25.72,0a.42.42,0,0,0-.21.06.38.38,0,0,0-.18.25,41.54,41.54,0,0,0-1.12,8.22.38.38,0,0,0,.11.3.41.41,0,0,0,.29.13H28.32a.42.42,0,0,0,.41-.41V21.73a.4.4,0,0,0-.4-.4,49.94,49.94,0,0,1-11.08-1.55ZM8.52,16.32a.38.38,0,0,0-.34.19A25.55,25.55,0,0,0,4.4,28.29a.45.45,0,0,0,.1.31.43.43,0,0,0,.3.13h7.86a.42.42,0,0,0,.41-.4,45.71,45.71,0,0,1,1.2-9A.41.41,0,0,0,14,18.8a30,30,0,0,1-5.28-2.43A.38.38,0,0,0,8.52,16.32ZM31.68,4.53a.38.38,0,0,0-.25.09.4.4,0,0,0-.16.32V18.37a.41.41,0,0,0,.13.29.42.42,0,0,0,.28.12h0A47.76,47.76,0,0,0,42,17.35a.38.38,0,0,0,.26-.2.44.44,0,0,0,0-.32C40,10.11,36.07,5.52,31.77,4.54Zm-3.36,0h-.09c-4.29,1-8.23,5.57-10.54,12.29a.45.45,0,0,0,0,.32.41.41,0,0,0,.26.2,47.85,47.85,0,0,0,10.33,1.43h0a.42.42,0,0,0,.28-.12.41.41,0,0,0,.13-.29V4.94a.4.4,0,0,0-.16-.32A.38.38,0,0,0,28.32,4.53ZM40.48,6.62a.39.39,0,0,0-.32.16.41.41,0,0,0,0,.5,27.85,27.85,0,0,1,4.65,8.81.45.45,0,0,0,.21.24.58.58,0,0,0,.18,0,.35.35,0,0,0,.14,0,28.13,28.13,0,0,0,4.38-2,.4.4,0,0,0,.19-.28.42.42,0,0,0-.08-.33,25.81,25.81,0,0,0-9.18-7.06A.33.33,0,0,0,40.48,6.62Zm-21,0a.33.33,0,0,0-.17,0,25.9,25.9,0,0,0-9.18,7.06.42.42,0,0,0-.08.33.4.4,0,0,0,.19.28,28.2,28.2,0,0,0,4.38,2l.14,0a.39.39,0,0,0,.18,0,.42.42,0,0,0,.21-.24,27.79,27.79,0,0,1,4.65-8.8.41.41,0,0,0,0-.5A.39.39,0,0,0,19.52,6.62Z"/></svg>