<svg id="Layer_1" data-name="Layer 1" xmlns="http://www.w3.org/2000/svg" xmlns:xlink="http://www.w3.org/1999/xlink" viewBox="0 0 155.59 155.59"><defs><style>.cls-1{fill:#e2d3ef;}.cls-2{fill:url(#linear-gradient);}.cls-3{fill:url(#linear-gradient-2);}</style><linearGradient id="linear-gradient" x1="28.98" y1="111.69" x2="105.35" y2="76.15" gradientUnits="userSpaceOnUse"><stop offset="0" stop-color="#f32dff"/><stop offset="1" stop-color="#ff2e92"/></linearGradient><linearGradient id="linear-gradient-2" x1="26.87" y1="107.14" x2="103.23" y2="71.6" xlink:href="#linear-gradient"/></defs><circle class="cls-1" cx="77.8" cy="77.8" r="77.8"/><path class="cls-2" d="M124.65,112.84c-.25-.34-.52-.66-.74-1Q116.46,99.63,109,87.43q-6.11-10-12.23-20c-5.29-8.68-10.53-17.39-15.87-26-1.74-2.82-4.36-2.81-6.19,0-1.35,2-2.52,4.16-3.77,6.25h0c-.94,1.61-2.24,3-2.9,4.78A37.08,37.08,0,0,0,64.61,58h0L59,67.1h0q-3.57,5.78-7.13,11.57h0L44.77,90.41h0a14.89,14.89,0,0,0-.89,1.2q-7.34,11.91-14.66,23.83v.86c3.59,0,7.18,0,10.76,0a2.11,2.11,0,0,0,2.17-1c3.14-5.29,6.33-10.55,9.51-15.82L59.4,86.93,66.26,75.7l6.12-9.92q1.35-2.07,2.68-4.14h0l1.7-1.27a3.77,3.77,0,0,1,2.08,0h0c1.9.87,2.78,2.71,3.76,4.31q15.33,24.94,30.49,50a2.9,2.9,0,0,0,2.92,1.61c3.46-.08,6.91,0,10.36,0V115C125.43,114.58,125.36,113.45,124.65,112.84Z"/><path class="cls-3" d="M82.51,80C81,80,79.49,80,78,80s-3.16,0-4.74,0a3.34,3.34,0,0,0-3.42,3.39,3.27,3.27,0,0,0,3.24,3.35c3.23.11,6.48.12,9.71,0a3.15,3.15,0,0,0,3.06-3.48A3.3,3.3,0,0,0,82.51,80Z"/></svg>