<svg id="Layer_1" data-name="Layer 1" xmlns="http://www.w3.org/2000/svg" xmlns:xlink="http://www.w3.org/1999/xlink" viewBox="0 0 155.59 155.59"><defs><style>.cls-1{fill:#263451;}.cls-2{fill:url(#linear-gradient);}.cls-3{fill:url(#linear-gradient-2);}</style><linearGradient id="linear-gradient" x1="77.32" y1="111.35" x2="72.25" y2="40.09" gradientUnits="userSpaceOnUse"><stop offset="0" stop-color="#0089ff"/><stop offset="1" stop-color="#00c6ff"/></linearGradient><linearGradient id="linear-gradient-2" x1="79.17" y1="111.22" x2="74.1" y2="39.96" xlink:href="#linear-gradient"/></defs><circle class="cls-1" cx="77.8" cy="77.8" r="77.8"/><path class="cls-2" d="M120.34,118.39c-3.94-1.35-7.4-2.8-11-3.67s-5.3-2.83-6.49-6.26c-4-11.51-8.38-22.91-12.61-34.35-.26-.71-.4-1.45-.6-2.16-2.18-5.76-4.34-11.53-6.56-17.28-.73-1.89-1.66-3.71-3.82-4.38-2.91-.9-5.3.22-6.6,3.47-2.18,5.42-4.12,10.93-6.17,16.39-.44,1.16-.95,2.29-1.42,3.43q-6.9,18.93-13.79,37.85a3.23,3.23,0,0,1-2.18,2.17c-4.53,1.49-9,3.06-13.51,4.58-.66-.51-.19-1,0-1.37L51.89,72.92c2.94-8,5.74-16,8.86-24,2.54-6.45,7.49-10.32,14.32-11.75h5.56c8.6,2.09,13.08,8,15.66,16,2,6.28,4.44,12.43,6.68,18.63q5.25,14,10.49,27.9C115.71,105.79,117.92,111.82,120.34,118.39Z"/><path class="cls-3" d="M77.69,81.5a10.81,10.81,0,1,1,.09,21.62,10.81,10.81,0,0,1-.09-21.62Z"/></svg>