<svg id="Layer_1" data-name="Layer 1" xmlns="http://www.w3.org/2000/svg" xmlns:xlink="http://www.w3.org/1999/xlink" viewBox="0 0 155.59 155.59"><defs><style>.cls-1{fill:#dff1ff;}.cls-2{fill:#2d1ad7;}.cls-3{fill:#463adc;}.cls-4{fill:url(#linear-gradient);}</style><linearGradient id="linear-gradient" x1="38.25" y1="82.75" x2="78.17" y2="122.28" gradientUnits="userSpaceOnUse"><stop offset="0" stop-color="#e600c9"/><stop offset="1" stop-color="#ff0065"/></linearGradient></defs><circle class="cls-1" cx="77.8" cy="77.8" r="77.8"/><path class="cls-2" d="M118.66,56.37a31.88,31.88,0,0,0-8.9-8.69,19.73,19.73,0,0,0-16.66-3c-2.14.57-3.43.06-4.49-1.78a20.78,20.78,0,0,0-2.37-3.23c-4-4.55-8.69-8-14.85-8.89-.79-.43-1.75.15-2.51-.41H67.46c-.78.56-1.73,0-2.53.39-5.57.77-10,3.74-13.84,7.55-5.5,5.41-10.93,10.89-16.39,16.35-2.39,2.4-2.39,2.75,0,5.14l50.65,50.56c2.34,2.33,2.82,2.33,5.16,0l22.91-22.87a35.22,35.22,0,0,0,6.65-8.82Q126,67.12,118.66,56.37ZM73,60.14c-1.41,1.46-2.87,2.88-4.3,4.34a2.18,2.18,0,0,1-3.48,0c-1.34-1.32-2.66-2.66-4-4-1.14-1.13-1.25-2.29-.07-3.47,1.5-1.49,3-3,4.53-4.45a4.43,4.43,0,0,1,5.23-.81,6,6,0,0,1,3.53,4.87A5.15,5.15,0,0,1,73,60.14Zm28.1,10a10.4,10.4,0,0,1-2.35,3.22C95.39,76.72,92,80.06,88.62,83.5c-1.53,1.58-2.86,1.7-4.36,0-1.11-1.22-2.32-2.35-3.49-3.51s-1.31-2.39,0-3.65c3.8-3.76,7.56-7.55,11.38-11.29a6.62,6.62,0,0,1,4.08-2C99.92,63.07,102.48,67,101.13,70.11Z"/><path class="cls-3" d="M67.46,30.4c-.75.77-1.66.45-2.53.39a1,1,0,0,1,.17-.39Z"/><path class="cls-3" d="M71.39,30.8c-.87.05-1.78.37-2.51-.4h2.36C71.3,30.53,71.34,30.67,71.39,30.8Z"/><path class="cls-4" d="M80.7,119.72l-5.1,5.1a1.29,1.29,0,0,1-1.8,0c-12.11-12-29.1-28.94-38-37.73a1.28,1.28,0,0,1,0-1.82l5.07-5.06a1.28,1.28,0,0,1,1.8,0l38.09,37.7A1.28,1.28,0,0,1,80.7,119.72Z"/></svg>