<svg id="Layer_1" data-name="Layer 1" xmlns="http://www.w3.org/2000/svg" viewBox="0 0 155.59 155.59"><defs><style>.cls-1{fill:#dff1ff;}.cls-2{fill:#003970;}</style></defs><circle class="cls-1" cx="77.8" cy="77.8" r="77.8"/><path class="cls-2" d="M66.4,37.67c6.33,0,12.67.11,19,0s11.26,6,10.31,12.09-2.11,12-3.12,18c-.19,1.15-.62,1.37-1.74,1.2a23.1,23.1,0,0,0-8.73,0c-3.31.75-6.1,2.22-7,5.84-.85,3.37.56,6.77,3.68,9a41.26,41.26,0,0,0,8.79,4.39c.85.34,1.17.63,1,1.65-1.21,6.45-2.28,12.93-3.5,19.38-1.56,8.29-9.84,11.48-16.52,6.32q-16.87-13-33.62-26.24a10.7,10.7,0,0,1-4.11-11C32.84,67.16,35.09,56.1,37.05,45c.57-3.22,5.8-7.45,9.64-7.37C53.26,37.77,59.83,37.67,66.4,37.67Z"/><path class="cls-2" d="M82.52,81.6a5,5,0,0,1-5-5,5,5,0,0,1,5.09-5.11,5.11,5.11,0,0,1,5,5.08A5,5,0,0,1,82.52,81.6Z"/><path class="cls-2" d="M96.69,112.15a4.16,4.16,0,0,1-4.06-4.9l10.54-55.06a4.12,4.12,0,1,1,8.1,1.55L100.74,108.8A4.14,4.14,0,0,1,96.69,112.15Z"/><path class="cls-2" d="M113.42,105.53a3.91,3.91,0,0,1-.68-.06,3.59,3.59,0,0,1-2.85-4.2l8-41.95a3.58,3.58,0,1,1,7,1.35l-8,42A3.57,3.57,0,0,1,113.42,105.53Z"/></svg>