<svg id="Layer_1" data-name="Layer 1" xmlns="http://www.w3.org/2000/svg" viewBox="0 0 152 152"><defs><style>.cls-1{fill:#8046e3;stroke:#fff;stroke-miterlimit:10;stroke-width:2px;}.cls-2{fill:#fff;}</style></defs><circle class="cls-1" cx="76" cy="76" r="75" transform="translate(-9.41 141.25) rotate(-82.38)"/><path class="cls-2" d="M59,39.34c2.46,1.18,4.74,2.7,7.1,4.06,3.37,1.94,6.71,3.93,10.05,5.9A14.72,14.72,0,0,1,78,50.46a5.28,5.28,0,0,1,2,3.75c0,.24,0,.48,0,.71v6.94a.35.35,0,0,1-.2.36L71.9,66.81a.21.21,0,0,1-.17.06v-.24c0-2.32,0-4.63,0-6.95a5.17,5.17,0,0,0-2.1-4.22,20.81,20.81,0,0,0-2.2-1.38c-2.51-1.52-5-3.06-7.53-4.53a5.25,5.25,0,0,0-5.58-.06c-3,1.74-6.07,3.51-9.1,5.28a5.42,5.42,0,0,0-2.71,3.66,4.92,4.92,0,0,0-.1.94c0,3.7,0,7.41,0,11.11A5,5,0,0,0,45,75q4.66,2.86,9.38,5.67a5.47,5.47,0,0,0,5.72-.13q5.79-3.49,11.6-7c1.53-.9,3.09-1.73,4.64-2.57,3-1.64,6-3.4,9-5.16,2.29-1.35,4.56-2.74,6.89-4a5.32,5.32,0,0,1,5.57,0l14,8.14c1.22.71,2.47,1.4,3.66,2.16a5.23,5.23,0,0,1,2.43,3.8,5.43,5.43,0,0,1,0,.81q0,10.27,0,20.54a5.19,5.19,0,0,1-2.29,4.48c-.64.45-1.34.81-2,1.2l-12.46,7.23c-1.16.68-2.32,1.36-3.5,2a3.31,3.31,0,0,1-1.83.49c-.64,0-1.29,0-1.93,0a2.52,2.52,0,0,1-1.4-.35l-3.21-1.85-7.2-4.18c-2.47-1.44-5-2.85-7.41-4.31A5.3,5.3,0,0,1,72,98.05a5.24,5.24,0,0,1,0-.79q0-3.45,0-6.89a.38.38,0,0,1,.23-.39L80,85.43l.24-.12v.25c0,2.24,0,4.49,0,6.74a5.16,5.16,0,0,0,2.64,4.6c3.09,1.82,6.17,3.65,9.3,5.39a5.27,5.27,0,0,0,5.53,0L106.61,97a5.42,5.42,0,0,0,2.66-3.67,6,6,0,0,0,.1-1.11c0-3.59,0-7.18,0-10.77a5.17,5.17,0,0,0-2.69-4.7c-3.07-1.8-6.14-3.62-9.25-5.36a5.28,5.28,0,0,0-5.46,0L77.21,79.93C71.4,83.3,65.62,86.7,59.8,90a5.26,5.26,0,0,1-5.5,0c-3.71-2.14-7.41-4.3-11.12-6.45Q40,81.74,36.86,79.9a5.38,5.38,0,0,1-2.66-3.65c-.05-.19-.07-.38-.11-.57V54.21a6.05,6.05,0,0,1,.16-1,4.76,4.76,0,0,1,2.28-2.88c1.09-.6,2.15-1.25,3.23-1.88,2.31-1.34,4.61-2.7,6.92-4l7.84-4.59a3.79,3.79,0,0,1,1.21-.46Z"/></svg>