<svg id="Layer_1" data-name="Layer 1" xmlns="http://www.w3.org/2000/svg" viewBox="0 0 155.59 155.59"><defs><style>.cls-1{fill:#dff1ff;}.cls-2{fill:#6f49fe;}</style></defs><circle class="cls-1" cx="77.8" cy="77.8" r="77.8"/><path class="cls-2" d="M125.76,98.26a52.64,52.64,0,0,0-7.71,3.82,120.69,120.69,0,0,0-11.52,7.14c-.24.17-.5.32-.92.58a140.9,140.9,0,0,1,0-63.65,1.74,1.74,0,0,1,1.15.55,136,136,0,0,0,17.78,10.36c.43.21.83.48,1.25.72v.54c-1.23,5.67-2.47,11.32-2.56,17.17A69.64,69.64,0,0,0,125.28,95c.24.89.15,1.85.48,2.73Z"/><path class="cls-2" d="M77.78,19.93c.18.25.3.48.47.68A129.68,129.68,0,0,0,93.51,36.35,1.34,1.34,0,0,1,94,38a135.78,135.78,0,0,0-5.07,25.09,142,142,0,0,0-.48,23.51A136.59,136.59,0,0,0,94,117.9a1.26,1.26,0,0,1-.38,1.52,132.79,132.79,0,0,0-15.34,15.85c-.67.83-.93.16-1.26-.24A136.35,136.35,0,0,0,66.1,123.36c-1.34-1.29-2.71-2.56-4.11-3.78a1.54,1.54,0,0,1-.52-1.85,133.73,133.73,0,0,0,4.29-19.17A141.32,141.32,0,0,0,67,69.78a140,140,0,0,0-4.59-28.41,23.56,23.56,0,0,0-.86-2.93,1.92,1.92,0,0,1,.74-2.5A130.22,130.22,0,0,0,77,20.77C77.22,20.54,77.44,20.31,77.78,19.93Z"/><path class="cls-2" d="M49.74,109.83a129.19,129.19,0,0,0-12.8-8c-2-1.13-4.13-2.23-6.26-3.22-.81-.38-1-.75-.74-1.59a67.14,67.14,0,0,0,2.67-21.14A66.63,66.63,0,0,0,30,59c-.3-1-.2-1.51.84-2A126.21,126.21,0,0,0,48.56,46.76c1.21-.83,1.21-.83,1.54.64a141.6,141.6,0,0,1,2.79,42.82A142.27,142.27,0,0,1,49.74,109.83Z"/></svg>