<svg id="Layer_1" data-name="Layer 1" xmlns="http://www.w3.org/2000/svg" viewBox="0 0 155.59 155.59"><defs><style>.cls-1{fill:#5e00fc;}.cls-2{fill:#fff;}.cls-3{fill:#523fd6;}</style></defs><circle class="cls-1" cx="77.8" cy="77.8" r="77.8"/><g id="Group_65788" data-name="Group 65788"><path id="Path_183359" data-name="Path 183359" class="cls-2" d="M133.36,82.54a5.43,5.43,0,0,1,0,.57c0,.11-.05.23-.07.34a1.39,1.39,0,0,1-.09.35,5.31,5.31,0,0,1-.13.55c-2.33,8.36-14.41,39.42-64.82,39.42a46,46,0,1,1,46-46.72h13.76A5.49,5.49,0,0,1,133.36,82.54Z"/><path id="Path_183360" data-name="Path 183360" class="cls-3" d="M48.57,69.26V79.5a5.12,5.12,0,0,1-10.23,0V69.26a5.12,5.12,0,0,1,10.23,0Z"/><path id="Path_183361" data-name="Path 183361" class="cls-3" d="M69.9,68.66V78.9a5.12,5.12,0,0,1-10.23,0V68.66a5.12,5.12,0,0,1,10.23,0Z"/></g></svg>