<svg xmlns="http://www.w3.org/2000/svg" viewBox="0 0 95.38 95.38"><defs><style>.cls-1{fill:#0063c7;stroke:#fff;stroke-miterlimit:10;stroke-width:6px;}.cls-2{fill:#fefefe;}</style></defs><g id="TEXT"><circle class="cls-1" cx="47.69" cy="47.69" r="44.69"/><path class="cls-2" d="M38.18,53.63c2.35,0,2.35,0,3.22,2.3a4.74,4.74,0,0,0,3.08,3,9.13,9.13,0,0,0,6.51-.1,4.39,4.39,0,0,0,2.84-4.71c-.1-1.87-1-3-3.21-3.57-2.6-.69-5.3-1-7.89-1.73-6.27-1.76-8.72-8.2-5.11-13.28a9.51,9.51,0,0,1,6.11-3.82c1.06-.21,1.31-.67,1.23-1.63-.08-.81,0-1.64,0-2.46,0-1.22.6-1.7,1.78-1.74,3.64-.13,3.83-.06,3.69,3.58,0,1.56.36,2.24,1.92,2.67a8.35,8.35,0,0,1,6,6.27c.41,1.5-.06,2.08-1.58,2.11-.53,0-1.07-.05-1.59,0A2,2,0,0,1,52.8,39c-1.06-2.79-4.65-4-8.18-2.81a3.86,3.86,0,0,0-2.87,4.16,3.31,3.31,0,0,0,2.14,3.14c2,.88,4.12,1,6.19,1.4a30.26,30.26,0,0,1,3.64.91,8.82,8.82,0,0,1,3.57,14.46,10.55,10.55,0,0,1-5.69,3.25c-1,.21-1.25.61-1.16,1.55a25.22,25.22,0,0,1,0,2.75,1.49,1.49,0,0,1-1.61,1.65c-3.68,0-4.11.3-3.86-3.54.11-1.68-.42-2.21-2-2.59a9.39,9.39,0,0,1-7.42-7.28c-.49-1.9,0-2.44,2-2.45Z"/><path class="cls-2" d="M80.34,47.76A32.76,32.76,0,0,1,58.49,78.51c-2.06.72-2.53.28-2.73-1.82s.66-3.3,2.74-4.18A26.52,26.52,0,0,0,74.76,47.35C74.39,35.68,68.61,27.44,58,22.62a4.13,4.13,0,0,1-2.06-5.33c.48-.95,1.26-.83,2.12-.54a32.76,32.76,0,0,1,22.28,31Z"/><path class="cls-2" d="M15.05,46.15c0-12.29,8.74-24.61,21.72-29.23,2.23-.79,2.63-.4,2.82,1.95.18,2.15-.66,3.14-2.62,4a27.07,27.07,0,0,0,.6,50,4.2,4.2,0,0,1,1.81,5.32c-.54.91-1.33.71-2.17.42A32.08,32.08,0,0,1,20.53,65.79C16.85,60.33,15.06,54.24,15.05,46.15Z"/></g></svg>