<svg id="Layer_1" data-name="Layer 1" xmlns="http://www.w3.org/2000/svg" xmlns:xlink="http://www.w3.org/1999/xlink" viewBox="0 0 155.59 155.59"><defs><style>.cls-1{fill:#eed3fe;}.cls-2{fill:url(#linear-gradient);}</style><linearGradient id="linear-gradient" x1="28.74" y1="77.8" x2="126.85" y2="77.8" gradientUnits="userSpaceOnUse"><stop offset="0" stop-color="#8325f1"/><stop offset="1" stop-color="#d000f9"/></linearGradient></defs><circle class="cls-1" cx="77.8" cy="77.8" r="77.8"/><path class="cls-2" d="M126.85,62l-.39.65-.45.75-2.81,4.67-.1.15c-.8,1.35-1.64,2.74-2.49,4.15l-.52.87-.71,1.18-1.92,3.18-.57,1L115.8,80.4l-1.1,1.82-.64,1.08-1,1.66c-.26.44-.52.88-.79,1.31l-1.42,2.36-1.32,2.2-.48.8L107,95l-.54.89-.54.9-1.45,2.4-1.19,2,0,0-1.72,2.86-1.29,2.15-.49.8-.48.8-1.4,2.33-.51.84c-.53.88-1,1.74-1.54,2.56l-.52.86c-.15.25-.29.5-.45.74l-.39.66-.39.64-.38.64-.25.41-.44.73c-1,1.6-1.8,3-2.51,4.18l-.09.14H65.35L65,122l-1.16-1.93-.41-.67-.41-.69-.42-.71-1.32-2.18-.49-.83-1.59-2.64-.39-.63-.69-1.15-.15-.26c-.33-.54-.67-1.1-1-1.66l-1.54-2.55-1.57-2.62-1.61-2.66-.54-.9-.31-.52L50.55,98l-1-1.66L49,95.39l-1.11-1.83-1.1-1.83-1.1-1.84-3.3-5.47-1.08-1.8-2.14-3.54-1-1.74-1.54-2.56-.38-.62-.62-1-1-1.62-1.42-2.37L30.12,64s0,0,0,0l-.78-1.3-.58-1L43,66.62,29.13,33l26.7,9.12,5.55,13.4,8.35,20.18,2.11,5.09,2.64,6.39L63.8,83.58l-4.13-1.41.22.35,1.19,2,.15.24,1.41,2.35c.19.31.37.62.56.92l1.86,3.1c.11.17.22.35.32.53l.63,1c.5.85,1,1.69,1.52,2.53l1.54,2.56,0,.08,1.53,2.53,1,1.66.49.82.73,1.22,1.6,2.64c.16.28.33.55.49.82l1.32,2.19.42.7.41.69.26.42h0l.54-.9c.85-1.41,1.76-2.91,2.71-4.5l.93-1.54.89-1.48.13-.21.82-1.37.09-.15,4.3-7.14.63-1,.61-1h0l1.26-2.09c.54-.91,1.09-1.82,1.64-2.73.18-.31.37-.61.55-.91l1.1-1.84c.13-.2.25-.41.37-.61l.66-1.09-1.92.66L80.26,87.82l3.07-7.43L85,76.33l8.77-21.21L98.9,42.75l26.67-9.11L111.68,67.23Z"/></svg>