<svg id="Layer_1" data-name="Layer 1" xmlns="http://www.w3.org/2000/svg" viewBox="0 0 155.59 155.59"><defs><style>.cls-1{fill:#08090d;}.cls-2{fill:#fff;}</style></defs><circle class="cls-1" cx="77.8" cy="77.8" r="77.8"/><path class="cls-2" d="M31,42.08l1.36,0a1.18,1.18,0,0,1,1,.39,1,1,0,0,1,.21.6c0,.25,0,.53,0,.83V58.17a4,4,0,0,1,0,.48,2,2,0,0,0,0,.49v.37a2,2,0,0,0,.14.78.41.41,0,0,0,.14.21l.19.16a.84.84,0,0,0,.62-.11l.44-.35a2.15,2.15,0,0,0,.37-.37,1.62,1.62,0,0,1,.32-.32,3.41,3.41,0,0,0,.65-.53q.27-.3.6-.63c.15-.15.3-.29.44-.41l.44-.42a1.09,1.09,0,0,0,.25-.23l.21-.23.14-.12a.49.49,0,0,0,.14-.11,2.4,2.4,0,0,1,.37-.4l.41-.34a1.89,1.89,0,0,1,.23-.28l.28-.28a5.57,5.57,0,0,0,.76-.69,6.32,6.32,0,0,1,.77-.69l.27-.3.28-.3a6.43,6.43,0,0,0,1.06-1,5,5,0,0,1,1.11-1,2.17,2.17,0,0,1,.95-.3,10,10,0,0,1,1.27-.07l.49,0a1.25,1.25,0,0,1,.44,0h.5c.25.06.45.11.6.16s.24.21.24.49a.37.37,0,0,0-.12.23.4.4,0,0,1-.12.23,1.53,1.53,0,0,1-.25.28l-.3.23a.64.64,0,0,0-.12.14.49.49,0,0,1-.11.13,1.14,1.14,0,0,0-.32.26,1.53,1.53,0,0,1-.28.25l-.28.26a1.09,1.09,0,0,0-.23.25,6.75,6.75,0,0,0-.69.6,5.69,5.69,0,0,1-.7.6l-.23.23a2.6,2.6,0,0,0-.23.28,5.8,5.8,0,0,0-.83.72,5.18,5.18,0,0,1-.83.71,1.13,1.13,0,0,1-.23.26.9.9,0,0,0-.23.25,4,4,0,0,0-.42.37,4,4,0,0,1-.42.37,5.34,5.34,0,0,0-.44.39,2.73,2.73,0,0,0-.34.44,1.61,1.61,0,0,0-.23.33.5.5,0,0,0,0,.46,1.85,1.85,0,0,0,.35.83q.26.33.48.69c.25.34.48.69.7,1s.43.7.64,1c.87,1.27,1.71,2.51,2.54,3.75s1.67,2.49,2.5,3.79c.19.24.35.49.51.73a7,7,0,0,0,.51.74c.12.19.24.37.37.54a3.12,3.12,0,0,1,.32.57,1.16,1.16,0,0,1,.14.67c0,.2-.17.33-.42.4a1.51,1.51,0,0,1-.55.09h-.6l-1.32,0a2.48,2.48,0,0,1-1.09-.16,2.57,2.57,0,0,1-1.08-1.09c-.32-.53-.61-1-.86-1.31l-2.08-3.17c-.67-1-1.37-2.07-2.08-3.12l-.8-1.27c-.27-.41-.55-.84-.86-1.27a3.45,3.45,0,0,0-.39-.42.64.64,0,0,0-.63-.13,1.31,1.31,0,0,0-.62.34c-.17.17-.35.33-.53.49a3.39,3.39,0,0,0-.44.41,3.45,3.45,0,0,1-.44.42,4.4,4.4,0,0,0-.85.81,2.61,2.61,0,0,0-.49,1.13c0,.12,0,.25,0,.37a2.31,2.31,0,0,0,0,.37,2.39,2.39,0,0,0,0,.55c0,.22,0,.42,0,.6v5a1.88,1.88,0,0,1-.23,1,1,1,0,0,1-.78.35l-1.16,0H30.9a1.29,1.29,0,0,1-.46-.09.87.87,0,0,1-.62-.79,11.39,11.39,0,0,1-.07-1.39V44.53c0-.33,0-.69,0-1.06a1.39,1.39,0,0,1,.2-.88,1.12,1.12,0,0,1,.7-.46.23.23,0,0,1,.18,0A.27.27,0,0,0,31,42.08Z"/><path class="cls-2" d="M74.11,62.14a3.55,3.55,0,0,1,0,1,1.4,1.4,0,0,1-.3.81,1.43,1.43,0,0,1-.67.25,6.11,6.11,0,0,1-1,.07c-.37,0-.74,0-1.11,0s-.69,0-1,0H58.26c-.25,0-.49,0-.74,0a1.47,1.47,0,0,0-.6.16,1.17,1.17,0,0,0-.37.37,2.08,2.08,0,0,0-.18.39.6.6,0,0,0,0,.49,2.12,2.12,0,0,1,0,.42,1.64,1.64,0,0,0,.05.37c.06.24.12.5.18.76a4.35,4.35,0,0,0,.28.76,6.55,6.55,0,0,0,3.51,3.56,3.92,3.92,0,0,0,.6.23l.65.18a1.32,1.32,0,0,0,.46,0,7.79,7.79,0,0,0,3.42,0,11.66,11.66,0,0,0,1.18-.39,5,5,0,0,0,1-.53,3.79,3.79,0,0,0,.87-.77,5.08,5.08,0,0,0,.65-.94,6.78,6.78,0,0,0,.49-1,1.29,1.29,0,0,1,.71-.74,2,2,0,0,1,.6-.14,5.81,5.81,0,0,1,.83,0l.79.07a1,1,0,0,1,.51.19c.31.22.38.57.23,1.06a9.37,9.37,0,0,1-1,2.22,9.7,9.7,0,0,1-2.1,2.43,9.6,9.6,0,0,1-3,1.54,4,4,0,0,1-.93.26c-.31,0-.63.1-1,.16a2.28,2.28,0,0,1-.44,0,2.32,2.32,0,0,0-.44,0h-.46a2.73,2.73,0,0,1-.53,0,2.17,2.17,0,0,1-.49,0H62.7a2.19,2.19,0,0,0-.42,0,1.64,1.64,0,0,1-.37,0l-.51-.07a3.54,3.54,0,0,1-.5-.07q-.42-.09-.84-.21a7.93,7.93,0,0,1-.78-.25,1.44,1.44,0,0,0-.32-.12,1,1,0,0,1-.33-.11c-.46-.22-1-.48-1.48-.79a8.8,8.8,0,0,1-2.28-2.15,12.43,12.43,0,0,1-1.6-2.84,5.49,5.49,0,0,1-.35-1.06,7.62,7.62,0,0,0-.3-1.11,1.33,1.33,0,0,1,0-.32,2,2,0,0,0,0-.37,6.17,6.17,0,0,1-.14-.79,6,6,0,0,0-.14-.83v-.65a3.83,3.83,0,0,1-.07-.53,2.57,2.57,0,0,1,0-.58v-.5a1.17,1.17,0,0,0,.07-.49,1.6,1.6,0,0,1,0-.49q.18-.73.3-1.47A6.05,6.05,0,0,1,53,58.26c.16-.34.3-.69.44-1a8.91,8.91,0,0,1,.49-1,13.63,13.63,0,0,1,2.31-2.8,10.78,10.78,0,0,1,3.19-2,6.42,6.42,0,0,1,1.13-.35l1.22-.25.42-.07a2.68,2.68,0,0,1,.42,0,.3.3,0,0,1,.23,0,.21.21,0,0,0,.23,0,10,10,0,0,1,6,1.57.92.92,0,0,1,.37.26,1.11,1.11,0,0,0,.32.25c.25.19.5.4.77.65a5.67,5.67,0,0,1,.67.74A17.07,17.07,0,0,1,72.4,56a4.1,4.1,0,0,1,.51,1.1c.12.4.26.81.42,1.21a6.49,6.49,0,0,1,.34,1.24c.08.44.18.87.3,1.3,0,.21.06.43.07.64S74.08,61.93,74.11,62.14Zm-4.48-1.57a1.49,1.49,0,0,0,.23-.49,1.09,1.09,0,0,0,0-.62,7.91,7.91,0,0,0-.78-1.89,8.89,8.89,0,0,0-1.44-1.81,6.55,6.55,0,0,0-2-1.24L65,54.35l-.69-.16a3.35,3.35,0,0,0-.79-.09H62.7a.45.45,0,0,1-.33.07.67.67,0,0,0-.32,0c-.25.06-.48.12-.71.16s-.46.11-.68.17a6.28,6.28,0,0,0-2.14,1.38A8.81,8.81,0,0,0,57.06,58a6.42,6.42,0,0,0-.28.58,4.87,4.87,0,0,0-.23.76,2.14,2.14,0,0,0,0,.79.72.72,0,0,0,.32.55,2.09,2.09,0,0,0,1.27.26l1.55,0h7l1.67,0A1.66,1.66,0,0,0,69.63,60.57Z"/><path class="cls-2" d="M98.93,62.14a3.25,3.25,0,0,1,0,1,1.34,1.34,0,0,1-.3.81,1.38,1.38,0,0,1-.67.25,5.9,5.9,0,0,1-1,.07c-.37,0-.74,0-1.11,0s-.69,0-1,0H83.08c-.25,0-.5,0-.74,0a1.38,1.38,0,0,0-.6.16,1,1,0,0,0-.37.37,2,2,0,0,0-.19.39.69.69,0,0,0,0,.49,2.18,2.18,0,0,1,0,.42,1.22,1.22,0,0,0,0,.37c.06.24.12.5.18.76a3.17,3.17,0,0,0,.28.76,6.55,6.55,0,0,0,3.51,3.56,3.26,3.26,0,0,0,.6.23l.65.18A1.28,1.28,0,0,0,87,72a7.79,7.79,0,0,0,3.42,0c.43-.12.82-.25,1.18-.39a5.23,5.23,0,0,0,1-.53,3.84,3.84,0,0,0,.88-.77,5.61,5.61,0,0,0,.65-.94,8,8,0,0,0,.48-1,1.34,1.34,0,0,1,.72-.74,1.88,1.88,0,0,1,.6-.14,5.76,5.76,0,0,1,.83,0l.79.07a1,1,0,0,1,.5.19.86.86,0,0,1,.24,1.06,9.53,9.53,0,0,1-3.08,4.65,9.49,9.49,0,0,1-3,1.54,4.11,4.11,0,0,1-.92.26c-.31,0-.63.1-1,.16a2.37,2.37,0,0,1-.44,0,2.25,2.25,0,0,0-.44,0H89a2.84,2.84,0,0,1-.54,0,2,2,0,0,1-.48,0h-.42a2.1,2.1,0,0,0-.41,0,1.5,1.5,0,0,1-.37,0l-.51-.07a3.7,3.7,0,0,1-.51-.07c-.28-.06-.55-.13-.83-.21a8.14,8.14,0,0,1-.79-.25,1.44,1.44,0,0,0-.32-.12,1,1,0,0,1-.32-.11c-.46-.22-1-.48-1.48-.79a8.69,8.69,0,0,1-2.29-2.15,12.79,12.79,0,0,1-1.59-2.84,4.88,4.88,0,0,1-.35-1.06,11.42,11.42,0,0,0-.3-1.11,1.39,1.39,0,0,1,0-.32,1.87,1.87,0,0,0,0-.37,4.81,4.81,0,0,1-.14-.79,8,8,0,0,0-.14-.83v-.65a3.83,3.83,0,0,1-.07-.53,2.14,2.14,0,0,1,0-.58v-.5a1,1,0,0,0,.07-.49,1.6,1.6,0,0,1,0-.49q.18-.73.3-1.47a5.19,5.19,0,0,1,.39-1.39c.15-.34.3-.69.44-1a10.8,10.8,0,0,1,.48-1A13.63,13.63,0,0,1,81,53.38a11,11,0,0,1,3.19-2,6.53,6.53,0,0,1,1.14-.35l1.22-.25.42-.07a2.62,2.62,0,0,1,.41,0,.3.3,0,0,1,.23,0,.21.21,0,0,0,.23,0,10.83,10.83,0,0,1,3.38.39,11.14,11.14,0,0,1,2.59,1.18.88.88,0,0,1,.36.26,1.15,1.15,0,0,0,.33.25c.24.19.5.4.76.65a5,5,0,0,1,.67.74A17.24,17.24,0,0,1,97.22,56a4.82,4.82,0,0,1,.51,1.1c.12.4.26.81.41,1.21a6.52,6.52,0,0,1,.35,1.24c.08.44.18.87.3,1.3,0,.21,0,.43.07.64S98.9,61.93,98.93,62.14Zm-4.48-1.57a1.73,1.73,0,0,0,.23-.49,1.09,1.09,0,0,0,0-.62,7.94,7.94,0,0,0-.79-1.89,8.86,8.86,0,0,0-1.43-1.81,6.67,6.67,0,0,0-2-1.24l-.65-.17c-.22,0-.45-.1-.69-.16a3.35,3.35,0,0,0-.79-.09h-.79a.44.44,0,0,1-.32.07.67.67,0,0,0-.32,0c-.25.06-.49.12-.72.16l-.67.17a6.43,6.43,0,0,0-2.15,1.38A8.79,8.79,0,0,0,81.88,58a3.5,3.5,0,0,0-.28.58,4.87,4.87,0,0,0-.23.76,2.39,2.39,0,0,0-.05.79.75.75,0,0,0,.32.55,2.11,2.11,0,0,0,1.28.26l1.54,0h7l1.66,0A1.68,1.68,0,0,0,94.45,60.57Z"/><path class="cls-2" d="M125.82,62.46a3.32,3.32,0,0,1,.05.61,3.28,3.28,0,0,1-.05.6.75.75,0,0,0,0,.44.86.86,0,0,1,0,.39,2.3,2.3,0,0,1,0,.51,4.6,4.6,0,0,0-.11.83,5.93,5.93,0,0,1-.12.83c-.06.25-.12.49-.19.72a5.31,5.31,0,0,1-.23.71,11.62,11.62,0,0,1-1.52,3.1q-.28.42-.6.81a5.88,5.88,0,0,1-.7.71L122,73c-.21.15-.41.3-.6.46a5.91,5.91,0,0,1-.64.46,5.19,5.19,0,0,1-1.14.62c-.41.17-.84.33-1.27.49a6.35,6.35,0,0,1-.71.14,5.06,5.06,0,0,0-.72.14.39.39,0,0,0-.16,0l-.16,0a7.65,7.65,0,0,1-1.23.12,6.43,6.43,0,0,1-1.27-.07h-.23c-.22,0-.42-.06-.6-.07a2.71,2.71,0,0,1-.55-.12l-1.48-.41a4.87,4.87,0,0,1-1.3-.56,8.08,8.08,0,0,1-1.29-.88l-.56-.39a.54.54,0,0,0-.69,0,.43.43,0,0,0-.18.37,1.76,1.76,0,0,1-.1.51.51.51,0,0,0,0,.3.65.65,0,0,1,0,.34,1.82,1.82,0,0,0-.07.63c0,.23,0,.44,0,.62v6.89a1.78,1.78,0,0,1-.28,1.06.9.9,0,0,1-.74.35l-1,0h-.74a3.18,3.18,0,0,1-.53-.19.7.7,0,0,1-.34-.32,1.57,1.57,0,0,1-.21-1c0-.47,0-.87,0-1.21V53.55c0-.37,0-.75,0-1.14a1.86,1.86,0,0,1,.26-.94,1,1,0,0,1,.62-.3,3.91,3.91,0,0,1,1-.1,6.53,6.53,0,0,1,1,.14,1.18,1.18,0,0,1,.63.3,1,1,0,0,1,.2.56,1.9,1.9,0,0,0,.17.64.8.8,0,0,0,.16.21l.16.16a1,1,0,0,0,.85-.32,4.93,4.93,0,0,1,.67-.6A9.22,9.22,0,0,1,112,50.87a6,6,0,0,1,.85-.14c.3,0,.6-.08.91-.14a1.17,1.17,0,0,1,.46,0,.44.44,0,0,0,.37-.05,11.53,11.53,0,0,1,3.51.4,10.13,10.13,0,0,1,2.73,1.22c.15.12.3.24.46.35s.31.22.46.34l.16.16.16.17.51.5a6.47,6.47,0,0,1,.51.56c.37.52.75,1.09,1.16,1.71a7.19,7.19,0,0,1,.62,1.34c.17.49.33,1,.48,1.48.07.24.12.51.17.78s.1.54.16.79,0,.24,0,.35a1.51,1.51,0,0,1,0,.3.93.93,0,0,1,.07.5,1.19,1.19,0,0,0,.07.51Zm-4.11,1.25a1.17,1.17,0,0,0,.05-.58,4.82,4.82,0,0,1-.05-.62,13.86,13.86,0,0,0-.07-1.48,5.54,5.54,0,0,0-.3-1.34c-.06-.18-.11-.37-.16-.58a2.78,2.78,0,0,0-.21-.57,8,8,0,0,0-1.59-2.41,6.55,6.55,0,0,0-2.06-1.57,3.63,3.63,0,0,0-.76-.27c-.26-.07-.53-.14-.81-.24a4.51,4.51,0,0,0-1-.09h-1a.41.41,0,0,1-.34.07,1.53,1.53,0,0,0-.44,0l-.81.19a3,3,0,0,0-.76.28A6,6,0,0,0,109,56.39a9,9,0,0,0-1.46,2.84,5.42,5.42,0,0,0-.25,1c0,.34-.1.67-.16,1a1.55,1.55,0,0,0,0,.35,1.14,1.14,0,0,1,0,.35v.37a3.76,3.76,0,0,0,0,.67,3.91,3.91,0,0,0,0,.67V64a1.14,1.14,0,0,1,0,.37,1,1,0,0,0,0,.32.86.86,0,0,1,0,.28,1.39,1.39,0,0,0,0,.32c.06.25.12.49.16.74s.1.49.16.74a9.16,9.16,0,0,0,1.41,2.75,6,6,0,0,0,2.38,1.82,9,9,0,0,0,1.81.56.66.66,0,0,0,.36.07.92.92,0,0,1,.37,0h.37a1.2,1.2,0,0,0,.65,0h.37c.34-.06.66-.11,1-.14a3.52,3.52,0,0,0,.93-.23,6.51,6.51,0,0,0,2.33-1.59,7.22,7.22,0,0,0,1.85-3.75q.11-.66.3-1.41a2.1,2.1,0,0,0,0-.41,2.37,2.37,0,0,1,0-.42Z"/><path class="cls-2" d="M31,71.08l1.36,0a1.18,1.18,0,0,1,1,.39,1,1,0,0,1,.21.6c0,.25,0,.53,0,.83V87.17a4,4,0,0,1,0,.48,2,2,0,0,0,0,.49v.37a2,2,0,0,0,.14.78.41.41,0,0,0,.14.21l.19.16a.84.84,0,0,0,.62-.11l.44-.35a2.15,2.15,0,0,0,.37-.37,1.62,1.62,0,0,1,.32-.32,3.41,3.41,0,0,0,.65-.53q.27-.3.6-.63c.15-.15.3-.29.44-.41l.44-.42a1.09,1.09,0,0,0,.25-.23l.21-.23.14-.12a.49.49,0,0,0,.14-.11,2.4,2.4,0,0,1,.37-.4l.41-.34a1.89,1.89,0,0,1,.23-.28l.28-.28a5.57,5.57,0,0,0,.76-.69,6.32,6.32,0,0,1,.77-.69l.27-.3.28-.3a6.43,6.43,0,0,0,1.06-1,5,5,0,0,1,1.11-1,2.17,2.17,0,0,1,.95-.3,10,10,0,0,1,1.27-.07l.49,0a1.25,1.25,0,0,1,.44,0h.5c.25.06.45.11.6.16s.24.21.24.49a.37.37,0,0,0-.12.23.4.4,0,0,1-.12.23,1.53,1.53,0,0,1-.25.28l-.3.23a.64.64,0,0,0-.12.14.49.49,0,0,1-.11.13,1.14,1.14,0,0,0-.32.26,1.53,1.53,0,0,1-.28.25l-.28.26a1.09,1.09,0,0,0-.23.25,6.75,6.75,0,0,0-.69.6,5.69,5.69,0,0,1-.7.6l-.23.23a2.6,2.6,0,0,0-.23.28,5.8,5.8,0,0,0-.83.72,5.18,5.18,0,0,1-.83.71,1.13,1.13,0,0,1-.23.26.9.9,0,0,0-.23.25,4,4,0,0,0-.42.37,4,4,0,0,1-.42.37,5.34,5.34,0,0,0-.44.39,2.73,2.73,0,0,0-.34.44,1.61,1.61,0,0,0-.23.33.5.5,0,0,0,0,.46,1.85,1.85,0,0,0,.35.83q.26.33.48.69c.25.34.48.69.7,1s.43.7.64,1c.87,1.27,1.71,2.51,2.54,3.75s1.67,2.49,2.5,3.79c.19.24.35.49.51.73a7,7,0,0,0,.51.74c.12.19.24.37.37.54a3.12,3.12,0,0,1,.32.57,1.16,1.16,0,0,1,.14.67c0,.2-.17.33-.42.4a1.51,1.51,0,0,1-.55.09h-.6l-1.32,0a2.48,2.48,0,0,1-1.09-.16,2.57,2.57,0,0,1-1.08-1.09c-.32-.53-.61-1-.86-1.31l-2.08-3.17c-.67-1-1.37-2.07-2.08-3.12l-.8-1.27c-.27-.41-.55-.84-.86-1.27a3.45,3.45,0,0,0-.39-.42.64.64,0,0,0-.63-.13,1.31,1.31,0,0,0-.62.34c-.17.17-.35.33-.53.49a3.39,3.39,0,0,0-.44.41,3.45,3.45,0,0,1-.44.42,4.4,4.4,0,0,0-.85.81,2.61,2.61,0,0,0-.49,1.13c0,.12,0,.25,0,.37a2.31,2.31,0,0,0,0,.37,2.39,2.39,0,0,0,0,.55c0,.22,0,.42,0,.6v5a1.88,1.88,0,0,1-.23,1,1,1,0,0,1-.78.35l-1.16,0H30.9a1.29,1.29,0,0,1-.46-.09.87.87,0,0,1-.62-.79,11.39,11.39,0,0,1-.07-1.39V73.53c0-.33,0-.69,0-1.06a1.39,1.39,0,0,1,.2-.88,1.12,1.12,0,0,1,.7-.46.23.23,0,0,1,.18,0A.27.27,0,0,0,31,71.08Z"/><path class="cls-2" d="M74.11,91.14a3.55,3.55,0,0,1,0,1,1.4,1.4,0,0,1-.3.81,1.43,1.43,0,0,1-.67.25,6.11,6.11,0,0,1-1,.07c-.37,0-.74,0-1.11,0s-.69,0-1,0H58.26c-.25,0-.49,0-.74,0a1.47,1.47,0,0,0-.6.16,1.17,1.17,0,0,0-.37.37,2.08,2.08,0,0,0-.18.39.6.6,0,0,0,0,.49,2.12,2.12,0,0,1,0,.42,1.64,1.64,0,0,0,.05.37c.06.24.12.5.18.76a4.35,4.35,0,0,0,.28.76,6.55,6.55,0,0,0,3.51,3.56,3.92,3.92,0,0,0,.6.23l.65.18a1.32,1.32,0,0,0,.46,0,7.79,7.79,0,0,0,3.42,0,11.66,11.66,0,0,0,1.18-.39,5,5,0,0,0,1-.53,3.79,3.79,0,0,0,.87-.77,5.08,5.08,0,0,0,.65-.94,6.78,6.78,0,0,0,.49-1,1.29,1.29,0,0,1,.71-.74,2,2,0,0,1,.6-.14,5.81,5.81,0,0,1,.83,0l.79.07a1,1,0,0,1,.51.19c.31.22.38.57.23,1.06a9.37,9.37,0,0,1-1,2.22,9.7,9.7,0,0,1-2.1,2.43,9.6,9.6,0,0,1-3,1.54,4,4,0,0,1-.93.26c-.31,0-.63.1-1,.16a2.28,2.28,0,0,1-.44,0,2.32,2.32,0,0,0-.44,0h-.46a2.73,2.73,0,0,1-.53,0,2.17,2.17,0,0,1-.49,0H62.7a2.19,2.19,0,0,0-.42,0,1.64,1.64,0,0,1-.37,0l-.51-.07a3.54,3.54,0,0,1-.5-.07q-.42-.09-.84-.21a7.93,7.93,0,0,1-.78-.25,1.44,1.44,0,0,0-.32-.12,1,1,0,0,1-.33-.11c-.46-.22-1-.48-1.48-.79a8.8,8.8,0,0,1-2.28-2.15,12.43,12.43,0,0,1-1.6-2.84,5.49,5.49,0,0,1-.35-1.06,7.62,7.62,0,0,0-.3-1.11,1.33,1.33,0,0,1,0-.32,2,2,0,0,0,0-.37,6.17,6.17,0,0,1-.14-.79,6,6,0,0,0-.14-.83v-.65a3.83,3.83,0,0,1-.07-.53,2.57,2.57,0,0,1,0-.58v-.5a1.17,1.17,0,0,0,.07-.49,1.6,1.6,0,0,1,0-.49q.18-.74.3-1.47A6.05,6.05,0,0,1,53,87.26c.16-.34.3-.69.44-1a8.91,8.91,0,0,1,.49-1,13.63,13.63,0,0,1,2.31-2.8,10.78,10.78,0,0,1,3.19-2,6.42,6.42,0,0,1,1.13-.35l1.22-.25.42-.07a2.68,2.68,0,0,1,.42,0,.3.3,0,0,1,.23,0,.21.21,0,0,0,.23,0,10,10,0,0,1,6,1.57.92.92,0,0,1,.37.26,1.11,1.11,0,0,0,.32.25c.25.19.5.4.77.65a5.67,5.67,0,0,1,.67.74A17.07,17.07,0,0,1,72.4,85a4.1,4.1,0,0,1,.51,1.1c.12.4.26.81.42,1.21a6.49,6.49,0,0,1,.34,1.24c.08.44.18.87.3,1.3,0,.21.06.43.07.64S74.08,90.93,74.11,91.14Zm-4.48-1.57a1.49,1.49,0,0,0,.23-.49,1.09,1.09,0,0,0,0-.62,7.91,7.91,0,0,0-.78-1.89,8.89,8.89,0,0,0-1.44-1.81,6.55,6.55,0,0,0-2-1.24L65,83.35l-.69-.16a3.35,3.35,0,0,0-.79-.09H62.7a.45.45,0,0,1-.33.07.67.67,0,0,0-.32,0c-.25.06-.48.12-.71.16l-.68.17a6.28,6.28,0,0,0-2.14,1.38A8.81,8.81,0,0,0,57.06,87a6.42,6.42,0,0,0-.28.58,4.87,4.87,0,0,0-.23.76,2.14,2.14,0,0,0,0,.79.72.72,0,0,0,.32.55,2.09,2.09,0,0,0,1.27.26l1.55,0h7l1.67,0A1.66,1.66,0,0,0,69.63,89.57Z"/><path class="cls-2" d="M77.25,80.19l1.39,0a2.16,2.16,0,0,1,1.16.2,1.45,1.45,0,0,1,.53.6l.34.79q.24.6.42,1.2t.42,1.2c.15.37.29.75.41,1.14a11.83,11.83,0,0,0,.42,1.13,6.33,6.33,0,0,1,.37,1.06,6.88,6.88,0,0,0,.37,1.11c.37.89.71,1.82,1,2.77s.65,1.88,1,2.78a.75.75,0,0,1,.09.34.47.47,0,0,0,.1.3c.18.43.35.87.5,1.32s.31.89.47,1.32c.09.21.18.44.27.67a.73.73,0,0,0,.47.44.43.43,0,0,0,.57-.26,6.43,6.43,0,0,0,.3-.62,9.2,9.2,0,0,0,.6-1.67A17.08,17.08,0,0,1,89,94.28c.28-.7.52-1.42.74-2.15a17,17,0,0,1,.78-2.1c0-.15.08-.35.14-.6a8.78,8.78,0,0,0,.33-.85q.14-.45.27-.81a3.43,3.43,0,0,0,.14-.42,3.34,3.34,0,0,1,.14-.41A9,9,0,0,0,92,85.8a9.5,9.5,0,0,1,.4-1.13,3.15,3.15,0,0,0,.13-.41,3,3,0,0,1,.14-.42A8,8,0,0,0,93,83l.27-.85c.1-.25.18-.5.26-.76a1.65,1.65,0,0,1,.35-.67,1.17,1.17,0,0,1,.9-.46c.38,0,.8,0,1.27,0l.71,0a1.37,1.37,0,0,1,.58.16.71.71,0,0,1,.23.88c-.12.4-.23.71-.32.93a.67.67,0,0,0-.07.18c0,.06,0,.12-.07.19q-.51,1.29-1,2.61c-.34.88-.67,1.75-1,2.61a6.72,6.72,0,0,0-.23.67,6,6,0,0,1-.24.62c-.24.62-.48,1.24-.71,1.87s-.47,1.26-.72,1.88Q91.82,96,90.66,99.23c-.77,2.16-1.61,4.3-2.5,6.42-.06.16-.11.32-.16.49l-.16.53c-.5,1.14-1,2.27-1.57,3.4a5.31,5.31,0,0,1-3.33,3.05c-.34.1-.73.2-1.16.3a.86.86,0,0,1-.48,0,1.57,1.57,0,0,0-.53,0,1.54,1.54,0,0,1-.74,0,2.07,2.07,0,0,0-.46,0l-.72-.19a.85.85,0,0,1-.53-.37,1.11,1.11,0,0,1-.26-.67c0-.26,0-.55,0-.85s0-.43,0-.63a.86.86,0,0,1,.17-.48c.21-.34.58-.43,1.1-.28a6.4,6.4,0,0,0,1.11.09,3,3,0,0,0,1.07-.18,2.75,2.75,0,0,0,1.13-.7,5.06,5.06,0,0,0,.76-1A9.14,9.14,0,0,0,84,106.9c.17-.43.34-.86.53-1.29q.18-.42.39-1a2,2,0,0,0,0-1.25c-.16-.49-.32-1-.49-1.38s-.35-.87-.53-1.3c-.28-.65-.54-1.29-.79-1.94s-.49-1.28-.74-1.89c-.18-.44-.35-.85-.5-1.25s-.31-.82-.47-1.25c-.55-1.36-1.1-2.71-1.64-4.07s-1.08-2.71-1.64-4.06c-.31-.71-.58-1.4-.83-2.06s-.51-1.33-.78-2l-.28-.76a.76.76,0,0,1,.6-1.13.36.36,0,0,1,.21,0A.27.27,0,0,0,77.25,80.19Z"/></svg>