<svg id="Layer_1" data-name="Layer 1" xmlns="http://www.w3.org/2000/svg" viewBox="0 0 155.59 155.59"><defs><style>.cls-1{fill:#0097fb;}.cls-2{fill:#fffefb;}</style></defs><circle class="cls-1" cx="77.8" cy="77.8" r="77.8"/><path class="cls-2" d="M86.86,75.16l-11-4.91c-6.72-2.64-14-5.4-14-13,0-7.08,6.11-11.39,15.23-11.39a27.43,27.43,0,0,1,16.42,5V61.75h8.16v-15h0A34.34,34.34,0,0,0,77.39,37c-15,0-25.78,8.88-25.78,20.87,0,11.63,9.11,17.14,16.9,20.26l11.39,5c7.92,3.35,14,5.75,14,14.14,0,7.2-6.23,12.36-17,12.36a32.06,32.06,0,0,1-16.8-4.85v-12H51.35V110h0a40.16,40.16,0,0,0,25.07,8.55c17.26,0,27.81-9.95,27.81-22.42C104.24,84.52,96.57,79,86.86,75.16Z"/></svg>