<svg id="Layer_1" data-name="Layer 1" xmlns="http://www.w3.org/2000/svg" viewBox="0 0 155.59 155.59"><defs><style>.cls-1{fill:#dff1ff;}.cls-2{fill:#2962e7;}</style></defs><circle class="cls-1" cx="77.8" cy="77.8" r="77.8"/><path class="cls-2" d="M106.05,36.39H36.56v69.83a13,13,0,0,0,13,13h56.51a13,13,0,0,0,13-13V49.37A13,13,0,0,0,106.05,36.39ZM47.84,46.47h13v39.1h-13Zm59.92,54.31A8.18,8.18,0,0,1,99.58,109h-4.8V69.69h13Zm0-41.17H83.52V109H55.42a7.58,7.58,0,0,1-7.58-7.59V95.64H65.4A6.68,6.68,0,0,0,72.08,89V46.47h28.1a7.58,7.58,0,0,1,7.58,7.58Z"/></svg>