<svg xmlns="http://www.w3.org/2000/svg" width="18.705" height="12.95" viewBox="0 0 18.705 12.95">
  <path id="Path_65868" data-name="Path 65868" d="M-2450.408,1309.49h-.005c-3.534-.084-4.842-2.256-4.9-2.349a.233.233,0,0,1-.031-.115,19.568,19.568,0,0,1,2.3-8.8.222.222,0,0,1,.062-.069,7.8,7.8,0,0,1,4.514-1.615.227.227,0,0,1,.218.227v.57a14.146,14.146,0,0,1,4.57.066v-.614a.225.225,0,0,1,.067-.161.235.235,0,0,1,.16-.066,7.826,7.826,0,0,1,4.439,1.6.218.218,0,0,1,.062.068,19.518,19.518,0,0,1,2.313,8.8.226.226,0,0,1-.144.211c-.023.023-.058.059-.089.092a6.559,6.559,0,0,1-4.854,2.062.23.23,0,0,1-.175-.077c-.024-.027-.6-.677-1.014-1.256l-.187-.264c-.272.068-.544.128-.808.186l-.018,0a11.311,11.311,0,0,1-5-.21l-.292.377c-.5.579-1.005,1.233-1.01,1.24A.228.228,0,0,1-2450.408,1309.49Zm-4.478-2.528a5.3,5.3,0,0,0,4.369,2.071c.158-.2.554-.708.949-1.161l.379-.487a.228.228,0,0,1,.243-.078,10.82,10.82,0,0,0,4.938.242h.005c.31-.068.63-.139.943-.221a.228.228,0,0,1,.243.088l.276.39c.321.444.75.948.916,1.14a6.1,6.1,0,0,0,4.431-1.92c.04-.041.074-.077.1-.106a19.086,19.086,0,0,0-2.228-8.414,7.642,7.642,0,0,0-3.906-1.479v.652a.226.226,0,0,1-.083.175.228.228,0,0,1-.188.047,13.71,13.71,0,0,0-4.943-.073.226.226,0,0,1-.184-.051.227.227,0,0,1-.081-.173v-.6a7.769,7.769,0,0,0-3.972,1.494A19.143,19.143,0,0,0-2454.886,1306.962Zm17.85.22a.219.219,0,0,0,.021.022Zm0,0h0Zm-6.141-1.413a1.854,1.854,0,0,1-1.823-1.879,1.86,1.86,0,0,1,1.782-1.882.209.209,0,0,1,.041,0,1.854,1.854,0,0,1,1.823,1.879A1.857,1.857,0,0,1-2443.177,1305.769Zm.036-3.311a.228.228,0,0,1-.036,0,1.4,1.4,0,0,0-1.37,1.429,1.4,1.4,0,0,0,1.37,1.425,1.4,1.4,0,0,0,1.368-1.432A1.4,1.4,0,0,0-2443.141,1302.459Zm-5.752,3.311a1.854,1.854,0,0,1-1.824-1.879,1.857,1.857,0,0,1,1.791-1.882.216.216,0,0,1,.038,0,1.851,1.851,0,0,1,1.818,1.879A1.858,1.858,0,0,1-2448.893,1305.769Zm.034-3.311-.034,0a1.4,1.4,0,0,0-1.37,1.429,1.4,1.4,0,0,0,1.37,1.425,1.4,1.4,0,0,0,1.37-1.432A1.4,1.4,0,0,0-2448.859,1302.459Z" transform="translate(2455.34 -1296.54)" fill="#fff"/>
</svg>
