<svg xmlns="http://www.w3.org/2000/svg" width="15.103" height="16.257" viewBox="0 0 15.103 16.257">
  <path id="Path_65869" data-name="Path 65869" d="M-2329.537,1312.442h-5.3a.26.26,0,0,1-.209-.107.259.259,0,0,1-.037-.231.324.324,0,0,0,.015-.1c0-.11,0-.3,0-.558s-.005-.556-.007-.909a3.4,3.4,0,0,1-2.809-.576,2.459,2.459,0,0,1-.761-1.05,2.611,2.611,0,0,0-1.052-1.384l-.034-.019c-.287-.193-.6-.455-.506-.765s.543-.345.729-.344a2.477,2.477,0,0,1,1.852,1.21,1.959,1.959,0,0,0,2.642.813,2.759,2.759,0,0,1,.4-1.021c-2.1-.316-4.6-1.318-4.6-5.362a4.228,4.228,0,0,1,1.055-2.86,4.011,4.011,0,0,1,.152-2.809.259.259,0,0,1,.163-.151c.1-.032,1.039-.27,3.049,1.04a10.621,10.621,0,0,1,2.613-.333,10.631,10.631,0,0,1,2.617.332c2-1.309,2.935-1.071,3.037-1.039a.256.256,0,0,1,.162.151,4.133,4.133,0,0,1,.162,2.806,4.246,4.246,0,0,1,1.053,2.863c0,4.044-2.5,5.042-4.6,5.354a3.053,3.053,0,0,1,.465,1.74c0,.938-.006,1.753-.01,2.291,0,.264,0,.461,0,.573a.331.331,0,0,0,.016.1.255.255,0,0,1-.036.232A.257.257,0,0,1-2329.537,1312.442Zm-5.015-.517h4.728c0-.117,0-.288,0-.5,0-.537.01-1.351.01-2.287a2.286,2.286,0,0,0-.626-1.738.258.258,0,0,1-.081-.273.259.259,0,0,1,.22-.181c2.286-.248,4.624-1.025,4.624-4.9a3.749,3.749,0,0,0-1.021-2.63.258.258,0,0,1-.051-.272,3.469,3.469,0,0,0-.054-2.437,4.754,4.754,0,0,0-2.583,1.052.259.259,0,0,1-.212.035,10.058,10.058,0,0,0-2.594-.344,10.063,10.063,0,0,0-2.59.344.261.261,0,0,1-.211-.034,4.792,4.792,0,0,0-2.6-1.052,3.345,3.345,0,0,0-.044,2.425.257.257,0,0,1-.047.283,3.734,3.734,0,0,0-1.026,2.629c0,3.9,2.467,4.673,4.617,4.911a.259.259,0,0,1,.219.18.258.258,0,0,1-.078.272,1.934,1.934,0,0,0-.587,1.24.258.258,0,0,1-.153.2,2.568,2.568,0,0,1-3.425-.975,1.982,1.982,0,0,0-1.424-.952.8.8,0,0,0-.119.009,2.012,2.012,0,0,0,.192.146,3.114,3.114,0,0,1,1.293,1.656l.007.02c.023.072.606,1.8,3.284,1.227a.26.26,0,0,1,.216.052.259.259,0,0,1,.1.2c0,.482.006.9.009,1.217C-2334.554,1311.648-2334.553,1311.811-2334.552,1311.925Z" transform="translate(2340.261 -1296.186)" fill="#fff"/>
</svg>
