<svg id="Layer_1" data-name="Layer 1" xmlns="http://www.w3.org/2000/svg" viewBox="0 0 133.17 133.17"><defs><style>.cls-1{fill:#fff;}</style></defs><g id="Isolation_Mode" data-name="Isolation Mode"><g id="Icons"><g id="Capa_1" data-name="Capa 1"><circle class="cls-1" cx="66.59" cy="66.59" r="66.59"/><path d="M105.42,34.18a3,3,0,0,0-3-.23L29.94,61.69c-2.47,1-3.09,1.94-3.09,2.34s.7,1,2.18,1.49l18,5.62L89.66,44.49c1.66-1.1,3.51-1.18,4.28-.17.16.21.9,1.34-.6,2.67L58.87,77.94l-1.22,17.2a5,5,0,0,0,1.79-1.33l9.08-8.68A1.11,1.11,0,0,1,69.94,85L88.66,98.75c1,.52,2.28,1,3.28.6s1.59-1.94,1.85-3.09l12.32-57.74a.43.43,0,0,1,0-.05C106.54,36.49,106.29,34.93,105.42,34.18Z"/></g></g></g></svg>