<svg xmlns="http://www.w3.org/2000/svg" width="17.854" height="14.604" viewBox="0 0 17.854 14.604">
  <path id="Path_65875" data-name="Path 65875" d="M-2137.486,1317.443a10.291,10.291,0,0,1-5.592-1.636.259.259,0,0,1-.1-.307.261.261,0,0,1,.277-.168,6.366,6.366,0,0,0,.817.047,6.932,6.932,0,0,0,3.7-1.076,3.855,3.855,0,0,1-2.863-2.574.259.259,0,0,1,.054-.255.26.26,0,0,1,.249-.079,2.385,2.385,0,0,0,.413.05,3.841,3.841,0,0,1-1.971-3.345v-.039a.26.26,0,0,1,.127-.224.261.261,0,0,1,.258,0,3.336,3.336,0,0,0,.623.265,3.8,3.8,0,0,1-.981-2.553,3.808,3.808,0,0,1,.521-1.926.259.259,0,0,1,.2-.129.258.258,0,0,1,.222.095,9.846,9.846,0,0,0,6.812,3.6,4.309,4.309,0,0,1-.031-.53,3.817,3.817,0,0,1,3.811-3.814,3.837,3.837,0,0,1,2.682,1.1,6.824,6.824,0,0,0,2.034-.8.261.261,0,0,1,.294.02.259.259,0,0,1,.086.282,3.765,3.765,0,0,1-.834,1.428,6.959,6.959,0,0,0,.967-.342.261.261,0,0,1,.3.072.26.26,0,0,1,.016.312,7.4,7.4,0,0,1-1.731,1.828c0,.12.007.228.007.331a10.724,10.724,0,0,1-2.669,6.989A9.946,9.946,0,0,1-2137.486,1317.443Zm-4.392-1.549a9.811,9.811,0,0,0,4.392,1.03,9.436,9.436,0,0,0,7.314-3.208,10.2,10.2,0,0,0,2.54-6.645c0-.134,0-.275-.013-.446a.262.262,0,0,1,.109-.225,6.654,6.654,0,0,0,1.187-1.083,7.8,7.8,0,0,1-1.27.269.261.261,0,0,1-.278-.173.26.26,0,0,1,.113-.308,3.3,3.3,0,0,0,1.157-1.164,7.438,7.438,0,0,1-1.664.538.26.26,0,0,1-.24-.077,3.315,3.315,0,0,0-2.406-1.043,3.3,3.3,0,0,0-3.292,3.295,3.381,3.381,0,0,0,.076.753.259.259,0,0,1-.054.225.259.259,0,0,1-.212.093,10.358,10.358,0,0,1-7.258-3.51,3.265,3.265,0,0,0-.281,1.33,3.287,3.287,0,0,0,1.463,2.737.26.26,0,0,1,.1.294.252.252,0,0,1-.253.182,3.708,3.708,0,0,1-1.319-.276,3.316,3.316,0,0,0,2.617,2.854.261.261,0,0,1,.208.246.26.26,0,0,1-.191.259,3.792,3.792,0,0,1-1,.126c-.1,0-.185,0-.269-.007a3.323,3.323,0,0,0,2.922,1.9.26.26,0,0,1,.241.178.26.26,0,0,1-.087.287A7.444,7.444,0,0,1-2141.879,1315.894Z" transform="translate(2143.197 -1302.839)" fill="#fff"/>
</svg>
