<svg xmlns="http://www.w3.org/2000/svg" width="17" height="15.386" viewBox="0 0 17 15.386">
  <g id="Group_35730" data-name="Group 35730" transform="translate(-40.295 -421.5)">
    <g id="Group_35729" data-name="Group 35729" transform="translate(40.295 421.5)">
      <path id="Path_62720" data-name="Path 62720" d="M-402.986,239.37l-8.182-5.99a.449.449,0,0,0-.53,0l-8.182,5.99a.449.449,0,0,0-.1.627.449.449,0,0,0,.627.1l7.917-5.8,7.917,5.8a.446.446,0,0,0,.265.087.448.448,0,0,0,.362-.183.448.448,0,0,0-.1-.627Zm0,0" transform="translate(420.063 -233.293)" fill="#ffffff"/>
      <path id="Path_62721" data-name="Path 62721" d="M-364.717,386.851a.449.449,0,0,0-.448.448v7.138h-3.588v-3.9A2.245,2.245,0,0,0-371,388.3a2.245,2.245,0,0,0-2.242,2.242v3.9h-3.588V387.3a.449.449,0,0,0-.448-.449.449.449,0,0,0-.448.449v7.587a.449.449,0,0,0,.448.448h4.485a.448.448,0,0,0,.447-.413.333.333,0,0,0,0-.035v-4.345A1.347,1.347,0,0,1-371,389.2a1.347,1.347,0,0,1,1.346,1.346v4.345a.34.34,0,0,0,0,.034.448.448,0,0,0,.447.414h4.484a.449.449,0,0,0,.449-.448V387.3a.449.449,0,0,0-.449-.449Zm0,0" transform="translate(379.625 -379.949)" fill="#ffffff"/>
    </g>
  </g>
</svg>
