<?xml version="1.0" standalone="no"?>
<!DOCTYPE svg PUBLIC "-//W3C//DTD SVG 20010904//EN"
 "http://www.w3.org/TR/2001/REC-SVG-20010904/DTD/svg10.dtd">
<svg version="1.0" xmlns="http://www.w3.org/2000/svg"
 width="588.000000pt" height="588.000000pt" viewBox="0 0 588.000000 588.000000"
 preserveAspectRatio="xMidYMid meet">

<g transform="translate(0.000000,588.000000) scale(0.100000,-0.100000)"
fill="#000000" stroke="none">
<path d="M2730 5869 c-882 -62 -1694 -525 -2205 -1257 -368 -529 -558 -1208
-515 -1845 49 -740 340 -1388 855 -1902 437 -437 978 -717 1585 -819 750 -127
1528 44 2150 472 224 154 464 376 625 577 698 872 847 2048 388 3061 -147 323
-341 602 -598 859 -509 509 -1159 804 -1883 854 -169 12 -232 12 -402 0z m287
-1130 c25 -12 56 -40 76 -67 44 -61 379 -643 423 -736 80 -169 82 -340 6 -507
-34 -76 -818 -1449 -872 -1530 -89 -129 -246 -235 -388 -259 -45 -7 -211 -10
-507 -8 -477 3 -469 2 -521 60 -66 72 -72 144 -22 250 19 40 290 521 602 1068
313 547 650 1138 749 1314 100 175 201 340 224 366 63 70 148 89 230 49z
m1153 -1831 c26 -13 60 -43 81 -71 54 -73 528 -891 546 -943 31 -93 -7 -194
-92 -238 -39 -21 -51 -21 -620 -21 -648 0 -612 -4 -673 71 -45 54 -57 117 -36
180 19 56 20 59 294 529 220 380 269 455 308 481 59 39 129 43 192 12z"/>
</g>
</svg>
