<svg id="Layer_1" data-name="Layer 1" xmlns="http://www.w3.org/2000/svg" viewBox="0 0 290.9 285.9"><defs><style>.cls-1{fill:#fff;}.cls-2{fill:#efb90c;}</style></defs><g id="Layer_2" data-name="Layer 2"><circle class="cls-1" cx="147.43" cy="142.95" r="136"/></g><g id="Layer_2-2" data-name="Layer 2"><circle class="cls-2" cx="147.43" cy="142.95" r="117.66"/></g><polygon class="cls-1" points="159.72 168.08 147.37 180.43 135.03 168.08 122.24 155.3 106.01 171.53 147.37 212.89 188.74 171.53 172.51 155.3 159.72 168.08"/><polygon class="cls-1" points="135.03 117.82 147.37 105.47 159.72 117.82 172.51 130.6 188.74 114.38 147.37 73.01 106.01 114.38 122.24 130.6 135.03 117.82"/><rect class="cls-1" x="82.79" y="128.83" width="27.66" height="27.66" transform="translate(-72.57 110.11) rotate(-45)"/><rect class="cls-1" x="184.4" y="128.83" width="27.66" height="27.66" transform="translate(-42.81 181.96) rotate(-45)"/><rect class="cls-1" x="133.54" y="128.83" width="27.66" height="27.66" transform="translate(-57.71 145.99) rotate(-45)"/></svg>