<svg id="Layer_1" data-name="Layer 1" xmlns="http://www.w3.org/2000/svg" viewBox="0 0 95.38 95.38"><defs><style>.cls-1{fill:#feb400;stroke:#fff;stroke-miterlimit:10;stroke-width:6px;}.cls-2{fill:#fefefe;}</style></defs><circle class="cls-1" cx="47.69" cy="47.69" r="44.69"/><path class="cls-2" d="M74.52,50.61c-1.28,0-2.57,0-3.85,0-.17,0-.4.1-.36-.26a23.32,23.32,0,0,0,0-4.94c0-.37,0-.48.43-.48,1.25,0,2.5,0,3.75,0,.3,0,.42-.07.41-.4,0-1.54,0-3.08,0-4.62,0-.32-.09-.4-.41-.39-1.65,0-3.31,0-5,0a.57.57,0,0,1-.66-.44,21.21,21.21,0,0,0-5.64-8.27,24.21,24.21,0,0,0-12.52-5.95h0A24.59,24.59,0,0,0,48,24.48H27a1.18,1.18,0,0,0-.16.84V38.67c0,.69,0,.71-.71.71H21.17a1,1,0,0,0-.74.15V45a1,1,0,0,0,.74.16h4.95c.64,0,.67,0,.67.65,0,1.34,0,2.68,0,4,0,.61,0,.64-.67.64H21.17a1,1,0,0,0-.74.15V56c2,0,4,0,6,0,.41,0,.51.12.51.51,0,4.6,0,9.2,0,13.8,0,.5.13.62.62.61H45.37a28.88,28.88,0,0,0,6.94-.74c7.75-1.91,13.41-6.33,16.51-13.78a.54.54,0,0,1,.61-.38c1.71,0,3.41,0,5.11,0,.32,0,.42-.08.41-.4,0-1.53,0-3.05,0-4.57C75,50.68,74.85,50.6,74.52,50.61ZM32.21,29.79c0-.34,0-.48.44-.48,4.75,0,9.5-.07,14.25.05A18.8,18.8,0,0,1,59,33.86a16.79,16.79,0,0,1,4.16,5.38c0,.09.11.17.07.3H32.78c-.48,0-.58-.12-.58-.58C32.23,35.91,32.22,32.85,32.21,29.79ZM63,56.49a17.61,17.61,0,0,1-12.49,9.09,24.6,24.6,0,0,1-5.07.47c-4.23,0-8.47,0-12.7,0-.4,0-.52-.1-.52-.51q0-4.52,0-9c0-.43.1-.54.54-.54,5,0,10,0,15,0H62.66C63.24,56,63.24,56,63,56.49ZM64.91,50c0,.41-.15.59-.63.59q-7.87,0-15.76,0t-15.77,0c-.46,0-.55-.14-.55-.57,0-1.54,0-3.08,0-4.61,0-.41.11-.52.51-.52,5.37,0,10.74,0,16.11,0,5.16,0,10.31,0,15.47,0,.43,0,.59.12.63.55A25.72,25.72,0,0,1,64.91,50Z"/></svg>