<svg xmlns="http://www.w3.org/2000/svg" viewBox="0 0 521.29 521.29"><defs><style>.cls-1{fill:#8c3bec;stroke:#fff;stroke-miterlimit:10;stroke-width:6px;}.cls-2{fill:#fff;}</style></defs><g id="TEXT"><circle class="cls-1" cx="260.64" cy="260.64" r="257.64"/><path class="cls-2" d="M185.58,124.78h12a12.73,12.73,0,0,1,5.18,2.15Q213,133,223.33,139q10.46,6.16,20.92,12.3c7.24,4.26,14.52,8.45,21.72,12.78a20.12,20.12,0,0,1,9.9,14.81,18.81,18.81,0,0,1,.22,2.71c0,8.69,0,17.38,0,26.07a2.39,2.39,0,0,1-1.36,2.42c-4.47,2.51-8.9,5.12-13.34,7.69s-8.84,5.11-13.26,7.68c-.78.46-1.57.91-2.36,1.35s-1.18.21-1.25-.66c0-.39,0-.78,0-1.17V200.73A20.11,20.11,0,0,0,240.15,188a22.39,22.39,0,0,0-6.28-5.13q-15.51-9.31-31-18.72a26.57,26.57,0,0,0-8.76-3.7A18.91,18.91,0,0,0,182,161.89c-2.57,1.25-5,2.81-7.43,4.24l-16.07,9.34c-4.17,2.43-8.42,4.73-12.49,7.3a19.22,19.22,0,0,0-9.32,14.63,18.31,18.31,0,0,0-.12,2.09c0,13.52,0,27,0,40.55a19.35,19.35,0,0,0,4.44,12.26,23.12,23.12,0,0,0,6.6,5.25q12.89,7.76,25.76,15.57c2.3,1.4,4.6,2.81,6.93,4.18a21,21,0,0,0,8,2.61A18.94,18.94,0,0,0,199,278.28a50,50,0,0,0,4.7-2.73l30-18c3.49-2.1,7-4.22,10.48-6.28,3-1.78,6.16-3.43,9.24-5.14,4.86-2.69,9.69-5.41,14.57-8.05,6.21-3.36,12.28-6.94,18.35-10.53q9.74-5.76,19.5-11.5c5-2.95,10-5.94,15-8.82a19.36,19.36,0,0,1,6.84-2.26,20.69,20.69,0,0,1,10.2.88,38.66,38.66,0,0,1,5.91,3.1c5.46,3.14,10.9,6.32,16.36,9.48l13.78,8,16.22,9.4q6.9,4,13.79,8a32.58,32.58,0,0,1,5.41,3.63,21.65,21.65,0,0,1,4.46,5.54,14.85,14.85,0,0,1,2.09,7.76.36.36,0,0,0,.07.22v.15a4.1,4.1,0,0,0-.07,1.26v78.91A16.58,16.58,0,0,1,412,352.1a24.61,24.61,0,0,1-7.58,6.09c-7.45,4.26-14.85,8.6-22.27,12.9q-13.78,8-27.58,16c-4.5,2.61-9,5.24-13.52,7.84a10.93,10.93,0,0,1-5.76,1.58q-4.81-.08-9.65,0a9.88,9.88,0,0,1-5.21-1.56q-11.09-6.4-22.14-12.83l-17.81-10.35-20-11.59c-2.06-1.19-4.18-2.29-6.14-3.65a20.13,20.13,0,0,1-8.91-14.09c0-.13-.06-.25-.08-.38,0-.33,0-.66-.06-1,0-9.08,0-18.15,0-27.22a1.92,1.92,0,0,1,1.06-1.88c7.66-4.4,15.3-8.86,23-13.27,2.07-1.19,4.12-2.41,6.2-3.57.9-.5,1.3-.28,1.36.74,0,.41,0,.83,0,1.24q0,11.47,0,22.94a6,6,0,0,0,.07,1.4c.05.4,0,.81.06,1.22a19,19,0,0,0,4.41,10.83c1.95,2.46,4.59,4,7.24,5.52,4.33,2.5,8.65,5,13,7.54,5.81,3.36,11.59,6.77,17.41,10.09a22.8,22.8,0,0,0,10.08,3.6,19.38,19.38,0,0,0,8.71-1.11,14.62,14.62,0,0,0,2.74-1.3l18-10.71q7.62-4.53,15.25-9.05a19.93,19.93,0,0,0,9.72-13.1,20.38,20.38,0,0,0,.48-4.4c0-13.25,0-26.51,0-39.76a19.82,19.82,0,0,0-4.83-13.14,23.87,23.87,0,0,0-6.66-5c-4.33-2.5-8.65-5-13-7.54l-17-9.89a30.83,30.83,0,0,0-6.35-3.09,22.94,22.94,0,0,0-8.68-.93c-.26,0-.48.2-.74.21a19.73,19.73,0,0,0-7.39,2.73c-6.23,3.67-12.5,7.28-18.74,10.92l-15.52,9.05q-8.4,4.89-16.82,9.75-12.42,7.17-24.83,14.38L227,297.82q-9.81,5.7-19.63,11.41-3,1.71-5.91,3.45a22,22,0,0,1-7.94,2.82c-.2,0-.41.07-.61.12s-.57,0-.85.05a7.69,7.69,0,0,0-1.44.1,2.75,2.75,0,0,1-.81,0,7,7,0,0,0-1.3-.1c-.28,0-.57,0-.85-.05-3.77-.41-7-2.22-10.15-4.1-5.44-3.21-10.92-6.35-16.39-9.53l-12.63-7.33q-7.22-4.2-14.45-8.38l-8.67-5a7.84,7.84,0,0,1-.86-.66c-3.88-2.26-7.93-4.22-11.52-6.93A19.34,19.34,0,0,1,105.76,263a16.28,16.28,0,0,1-.42-4.29q0-39.1,0-78.21a17.1,17.1,0,0,1,5.2-12.41,20.24,20.24,0,0,1,4.61-3.26c4.78-2.73,9.5-5.54,14.25-8.32l21.75-12.72,14.63-8.57c5.17-3,10.34-6,15.51-9.08A11.15,11.15,0,0,1,185.58,124.78Z"/></g></svg>