<svg xmlns="http://www.w3.org/2000/svg" viewBox="0 0 95.38 95.38"><defs><style>.cls-1{fill:#00a17a;stroke:#fff;stroke-miterlimit:10;stroke-width:6px;}.cls-2{fill:#fff;}</style></defs><g id="TEXT"><circle class="cls-1" cx="47.69" cy="47.69" r="44.69" transform="translate(-5.9 88.64) rotate(-82.38)"/><path class="cls-2" d="M53.89,41.43V36.25h15V25.32h-42V36.25H42V41.4c-10.67.58-20,2.71-20,6.29s9.33,6.42,20,7V74.39H53.89V54.7h.47c10.47-.62,19.53-3.47,19.53-7S64.37,42,53.89,41.43Zm0,10.68c-2,.12-4.15.19-6.43.19-1.94,0-3.77,0-5.5-.14-11.92-.59-18.62-2.64-18.62-4.47S30.32,43.47,42,42.83v7.72l11.93-.06V42.86c11.35.67,18.57,3,18.57,4.83S65.29,51.43,53.94,52.11Z"/></g></svg>